<svg id="Layer_1" data-name="Layer 1" xmlns="http://www.w3.org/2000/svg" xmlns:xlink="http://www.w3.org/1999/xlink" viewBox="0 0 500 500"><defs><style>.cls-1{fill:none;}.cls-2{fill:#fff;}.cls-3{fill:#e5302c;}.cls-4{clip-path:url(#clip-path);}</style><clipPath id="clip-path"><path class="cls-1" d="M205.406,291.153c-27.578,0-53.562-9-63.289-12.8l21.914-126.084c13.306,4.336,45.316,13.45,79.221,13.45,15.515,0,29.622-1.953,41.933-5.8,29.752-9.3,52.3-11.254,65.966-11.254.98,0,1.891.011,2.739.028L330,202.829l-56.581,17.152,23.5,5.555-11.784,5.12,25.9,10.911L274.84,262,309,263.71l-9.976,27.257a151.781,151.781,0,0,0-37.527-4.694,214.245,214.245,0,0,0-37.065,3.3A110.174,110.174,0,0,1,205.406,291.153Z"/></clipPath></defs><title>Artboard 1</title><g id="flag-returned"><path class="cls-2" d="M172.689,425.908l-11.67-19.384a13.544,13.544,0,0,0,3.467-3.741,15.816,15.816,0,0,0,1.993-4.714,16.028,16.028,0,0,0,.4-5.067,13.912,13.912,0,0,0-1.242-4.8,11.716,11.716,0,0,0-3.148-4.036,14.433,14.433,0,0,0-4.276-2.386,22.371,22.371,0,0,0-4.94-1.12,44.914,44.914,0,0,0-5.026-.294c-1.267,0-2.523.041-3.772.109l-5.728,5.833,1.426-5.459c-.225.027-.453.047-.678.076q-4.305.561-7.713.855l.231,44.011,16.581.177-.347-16.32,8.666,16.261Zm-20.278-29.96a5.775,5.775,0,0,1-2.311,2.033,8.091,8.091,0,0,1-2.831.766l-.347-9.78a4.752,4.752,0,0,1,.867-.059,7.169,7.169,0,0,1,2.311.353,4.518,4.518,0,0,1,2.4,1.65,4.03,4.03,0,0,1,.751,2.445A4.971,4.971,0,0,1,152.411,395.948Z"/><polygon class="cls-2" points="205.693 382.014 186.575 381.977 184.592 388.738 183.855 381.971 175.708 381.955 176.459 425.967 203.266 425.908 203.266 416.834 188.707 417.188 188.65 411.178 197.835 411.12 197.835 403.814 187.956 403.814 187.898 396.037 205.057 396.037 205.693 382.014"/><polygon class="cls-2" points="209.903 381.838 209.845 397.627 222.44 397.333 221.851 408.979 227.169 408.164 221.672 412.521 220.995 425.908 236.594 425.967 236.825 397.451 250.286 397.333 250.286 381.838 209.903 381.838"/><path class="cls-2" d="M289.572,389.821q-.117-4.271-.058-7.689l-3.169.013-1.833,6.808-1.771-6.793-7.5.031-.867,22.624a7.642,7.642,0,0,1-.4,2.593,4.973,4.973,0,0,1-1.1,1.8,2.958,2.958,0,0,1-2.253.8.23.23,0,0,1-.173-.059,3.042,3.042,0,0,1-2.282-.943,4.889,4.889,0,0,1-1.069-1.885,8.458,8.458,0,0,1-.289-2.71l.982-22.153-13.75-.059q-.346,5.775-.462,11.312-.059,2.358-.058,4.89t.058,5.008q.057,2.475.2,4.8t.376,4.213a13.548,13.548,0,0,0,2.051,5.832,15.512,15.512,0,0,0,4.044,4.242,18.036,18.036,0,0,0,5.344,2.593,20.618,20.618,0,0,0,5.951.884,17.045,17.045,0,0,0,5.17-.855,20.383,20.383,0,0,0,5.026-2.386,18.169,18.169,0,0,0,4.073-3.623,12.249,12.249,0,0,0,2.427-4.625,39.393,39.393,0,0,0,1.155-7.424q.29-4.182.289-8.572T289.572,389.821Z"/><path class="cls-2" d="M335.61,425.908l-11.67-19.384a13.544,13.544,0,0,0,3.467-3.741,15.816,15.816,0,0,0,1.993-4.714,16.028,16.028,0,0,0,.4-5.067,13.912,13.912,0,0,0-1.242-4.8,11.716,11.716,0,0,0-3.148-4.036,14.433,14.433,0,0,0-4.276-2.386,22.432,22.432,0,0,0-4.939-1.12,44.918,44.918,0,0,0-5.027-.294,68.115,68.115,0,0,0-8.752.559q-4.305.561-7.713.855l.169,32.157,5.212-.8-5.2,4.119.045,8.535,16.581.177-.347-16.32,8.666,16.261Zm-20.278-29.96a5.775,5.775,0,0,1-2.311,2.033,8.091,8.091,0,0,1-2.831.766l-.347-9.78a4.752,4.752,0,0,1,.867-.059,7.169,7.169,0,0,1,2.311.353,4.518,4.518,0,0,1,2.4,1.65,4.03,4.03,0,0,1,.751,2.445,4.971,4.971,0,0,1-.84,2.592Z"/><polygon class="cls-2" points="379.764 381.955 367.342 381.955 367.111 406.229 352.032 382.014 350.035 382.005 346.996 388.707 346.372 381.987 339.9 381.955 339.207 425.967 353.534 425.967 353.766 405.228 368.093 425.908 380.168 425.967 379.764 381.955"/><polygon class="cls-2" points="415.475 382.014 385.491 381.955 386.242 425.967 402.593 425.931 400.593 423.825 407.539 425.92 413.049 425.908 413.049 416.834 398.49 417.188 398.432 411.178 407.618 411.12 407.618 403.814 397.739 403.814 397.681 396.037 414.84 396.037 415.475 382.014"/><path class="cls-2" d="M449.006,397.156a19.139,19.139,0,0,0-2.282-6.363,14.358,14.358,0,0,0-4.8-5.037,23.6,23.6,0,0,0-6.384-2.8c-.779-.213-1.571-.391-2.369-.553l-3,5.457-.092-5.954c-.544-.063-1.091-.118-1.644-.158q-3.669-.264-6.9-.265H418.7l2.541,44.365q.695.058,1.387.088t1.386.03a28.4,28.4,0,0,0,5.749-.589,25.992,25.992,0,0,0,5.517-1.8,27.3,27.3,0,0,0,5-2.947,22.87,22.87,0,0,0,4.189-4.035,19.991,19.991,0,0,0,3.235-5.745,26.992,26.992,0,0,0,1.559-6.745A25.525,25.525,0,0,0,449.006,397.156Zm-12.8,8.425a5.179,5.179,0,0,1-1.675,1.886,6.243,6.243,0,0,1-2.311.942l.231-9.544a6.615,6.615,0,0,1,2.08.589,3.967,3.967,0,0,1,1.791,1.62,4.053,4.053,0,0,1,.519,2.21,5.56,5.56,0,0,1-.632,2.3Z"/></g><g id="flag-red"><path class="cls-2" d="M135.555,284.548c8.1,3.36,37.886,20.016,70.877,20.016a123.357,123.357,0,0,0,21.356-1.784c11.994-2.113,23.8-5,35.544-5,25.162,0,38.654,10.315,44.467,2.565,2.722-3.63,15.125-45.677,15.125-45.677l-12.4.453L329.73,240l-14.138-8.364,15.2-9.483-17.737-4.538,25.431-3.988s12.4-29.683,21.175-51.425c4.982-12.349,10.3-21.78,7.747-22.643-9.532-3.224-46.771-.1-78.45,9.806-11.437,3.576-30.885,6.3-45.53,6.3-42.206,0-81.547-12.456-81.953-12.608l.157-4.353.031-.119-.015-.055"/><path class="cls-2" d="M137.127,303.9l25.247-157.928c.956-.066.924-1.457.924-1.457l1.058-6.4a1.782,1.782,0,0,0-.938-1.765l.866-3.348-1.148-4.047.836-1.337,1.334-7.465-3.543,1.911-2.741-2.949-1.334,7.464.361,1.535-2.642,3.42-.069,3.481a1.78,1.78,0,0,0-1.456,1.369l-1.057,6.4s-.478,1.308.406,1.677L135.746,245.3l-10.793,62.488S103.715,427.763,103.542,429.37s1.948,3.448,4.357,3.75c3.814.478,6.166-.6,6.511-2.17C115.035,428.1,137.127,303.9,137.127,303.9Z"/><polygon class="cls-2" points="173.815 95.296 167.314 99.665 172.924 86.35 171.008 67.098 154.554 103.281 145.174 117.828 157.46 127.908 164.271 129.033 179.146 123.442 174.946 106.65 173.815 95.296"/><path class="cls-3" d="M205.406,291.153c-27.578,0-53.562-9-63.289-12.8l21.914-126.084c13.306,4.336,45.316,13.45,79.221,13.45,15.515,0,29.622-1.953,41.933-5.8,29.752-9.3,52.3-11.254,65.966-11.254.98,0,1.891.011,2.739.028L330,202.829l-56.581,17.152,23.5,5.555-11.784,5.12,25.9,10.911L274.84,262,309,263.71l-9.976,27.257a151.781,151.781,0,0,0-37.527-4.694,214.245,214.245,0,0,0-37.065,3.3A110.174,110.174,0,0,1,205.406,291.153Z"/><g class="cls-4"><path class="cls-2" d="M498.578,293l-29.64,21.615L230.479,175.2-23.356,350.313l-29.1-27.483c2.542-1.306,286.143-181.872,286.143-181.872Z"/><path class="cls-2" d="M482.546,350.286,452.906,371.9,228.03,246.039,18.677,392.345-3.429,367.173C-.887,365.867,226.939,204.05,226.939,204.05Z"/></g><polygon class="cls-2" points="176.479 344.232 164.807 343.964 164.941 336.988 186.139 336.854 186.005 323.169 158.983 323.169 156.787 330.432 157.138 323.169 148.909 323.169 148.373 373.211 165.679 373.211 165.344 353.154 176.681 353.422 176.479 344.232"/><polygon class="cls-2" points="201.75 366.899 208.709 372.825 224.224 372.824 223.892 356.026 206.098 356.226 205.832 323.161 190.164 323.161 190.628 372.825 204.416 372.825 201.75 366.899"/><path class="cls-2" d="M261.7,324.161l-7.241-.232-5.572,5.337,2.082-5.449-10.166-.326-12.3,48.527,18.279.519,1.34-9.072,10.218.393,1.741,9.105,13.3.361ZM248.922,354.7l1.04-7.9,5.961.191,1.257,7.844Z"/><path class="cls-2" d="M316.8,347.211a13.33,13.33,0,0,0-4.575-4.038,20.763,20.763,0,0,0-6.479-2.123,54.281,54.281,0,0,0-8.13-.692l-1.946,12.161a12.541,12.541,0,0,1,2.951.231,12.78,12.78,0,0,1,2.743.842,6.23,6.23,0,0,1,2.034,1.4,3.217,3.217,0,0,1,.9,1.962,2.737,2.737,0,0,1-.859,2.184,5.738,5.738,0,0,1-2.634,1.486l-.654.058a8.817,8.817,0,0,1-9.022-4.432,11.768,11.768,0,0,1-1.491-4.9,17.985,17.985,0,0,1,.312-5.363q1.083-4.839,3.858-6.963a12.6,12.6,0,0,1,6.7-2.473,26.107,26.107,0,0,1,6.312.26q3.372.525,6.876,1.4l1.535-6.789-6.675,1.469,7.688-5.947.523-2.312a97.575,97.575,0,0,0-10.148-1.532A52.319,52.319,0,0,0,297,323.03a32.508,32.508,0,0,0-7.855,1.655,20.213,20.213,0,0,0-6.549,3.745,20.955,20.955,0,0,0-4.875,6.263,29.323,29.323,0,0,0-2.835,9.21,36.116,36.116,0,0,0-.371,6.191,30.105,30.105,0,0,0,.774,6.09,29.154,29.154,0,0,0,1.955,5.687,22.28,22.28,0,0,0,3.107,4.926,18.586,18.586,0,0,0,3.9,3.5A19.88,19.88,0,0,0,289,372.641a25.418,25.418,0,0,0,5.34,1.171,27.721,27.721,0,0,0,11.619-1.168,21.608,21.608,0,0,0,5.431-2.624c.133-.084.256-.176.385-.263l1.451-8.774,1.411,6.386c.185-.193.373-.384.548-.585a17.948,17.948,0,0,0,2.641-3.99,16.462,16.462,0,0,0,1.416-4.439,13.677,13.677,0,0,0-.019-4.642A15.076,15.076,0,0,0,316.8,347.211Z"/></g></svg>