<svg xmlns="http://www.w3.org/2000/svg" viewBox="0 0 51.841 51.816" xmlns:v="https://vecta.io/nano"><style>.B{isolation:isolate}.F{mix-blend-mode:multiply}.O{mix-blend-mode:screen}</style><defs><clipPath id="A"><path d="M.219.085h49.134v49.444H.219z" fill="none"/></clipPath><clipPath id="B"><path d="M48.525 20.84l-2.294-6.768-.231-.918-6.15-7.325L32.9 1.71 22.951.085l-6.012 1.692v.033h0a7.869 7.869 0 0 1-.651 1.429 5.6 5.6 0 0 0-.437-1.106L9.214 5.451l-5.477 6.323-3.518 7.9.712 11.292 4.275 8.305.231.183 1.126 1.779 7.219 5.954 5.75 1.946 1.707-1.438 1.674 1.833 8.728-.2 7.805-3.908 4.131-4.8-.607-1.3 1.348.475 2.746-2.955 2.289-13.558z" fill="none"/></clipPath><linearGradient id="C" x1="-27.765" y1="78.753" x2="-26.765" y2="78.753" gradientTransform="matrix(0, -53.609, -53.609, 0, 4246.646, -1437.161)" gradientUnits="userSpaceOnUse"><stop offset="0" stop-color="#fff"/><stop offset=".185" stop-color="#fcfcfc"/><stop offset=".318" stop-color="#f3f3f3"/><stop offset=".434" stop-color="#e3e3e3"/><stop offset=".542" stop-color="#cdcdcd"/><stop offset=".643" stop-color="#b0b0b0"/><stop offset=".739" stop-color="#8c8c8c"/><stop offset=".832" stop-color="#626262"/><stop offset=".919" stop-color="#333"/><stop offset="1"/></linearGradient><clipPath id="D"><path d="M4.045 11.094v.012l.023.01-.018-.022" fill="none"/></clipPath><linearGradient id="E" x1="4.018" y1="11.068" x2="4.041" y2="11.068" gradientUnits="userSpaceOnUse"><stop offset="0" stop-color="#fad20c"/><stop offset="1" stop-color="#34fa0c"/></linearGradient><clipPath id="F"><path d="M49.608 50.137L49.352.085H.219l.256 50.052" fill="none"/></clipPath><clipPath id="G"><path d="M48.525 20.84l-2.294-6.768-.231-.918-6.15-7.325L32.9 1.71 22.951.085l-6.012 1.692v.033h0a7.869 7.869 0 0 1-.651 1.429 5.6 5.6 0 0 0-.437-1.106L9.214 5.451l-5.477 6.323-3.518 7.9.712 11.292 4.275 8.305.231.183 1.126 1.779 7.219 5.954 5.75 1.946 1.707-1.438 1.767 1.86 8.635-.222 7.806-3.908 4.13-4.8-.607-1.3 1.348.475 2.746-2.955 2.289-13.558zm-6.712 9.325c-.507 1.614-2.536 4.408-3.553 5.76a23.2 23.2 0 0 1-4.542 4.361 16.185 16.185 0 0 1-3.811 1.27 36.276 36.276 0 0 1-6.775.612 23.1 23.1 0 0 1-4.634-.847 25.309 25.309 0 0 1-6.068-3.146 22.72 22.72 0 0 1-3.15-3.756 23.862 23.862 0 0 1-1.844-3.336 35.1 35.1 0 0 1-1.28-4.341 13.909 13.909 0 0 1-.336-2.558 28.043 28.043 0 0 1 .693-3.922 19.776 19.776 0 0 1 1-3.342 24.11 24.11 0 0 1 2.61-3.847 30.288 30.288 0 0 1 3.66-3.557 25.58 25.58 0 0 1 5.565-3.144A19.208 19.208 0 0 1 23.99 5.9a34.823 34.823 0 0 1 3.592.528 23.633 23.633 0 0 1 3.056.668 18.248 18.248 0 0 1 2.581 1.356 34.213 34.213 0 0 1 4.948 3.874 20.088 20.088 0 0 1 2.811 4.227 26.609 26.609 0 0 1 1.486 6.2 24.258 24.258 0 0 1-.651 7.409" fill="none"/></clipPath><linearGradient id="H" x1="-27.767" y1="78.753" x2="-26.767" y2="78.753" gradientTransform="matrix(0, -59.461, -59.461, 0, 4707.515, -1599.67)" gradientUnits="userSpaceOnUse"><stop offset="0"/><stop offset="1" stop-color="#fff"/></linearGradient></defs><g class="B"><g><g><path d="M3.3 24.922c0-10.641 9.422-19.267 21.044-19.267S45.39 14.281 45.39 24.922A20.632 20.632 0 0 1 24.9 45.3c-11.622 0-21.6-9.739-21.6-20.379" fill="#bd9d00"/><path d="M36.2 26.559l-1.341-1.3c-1.342-1.3-1.513-3.533-1.847-5.483a8.923 8.923 0 0 0-1.3-3.324l-5.487 3.358 2.936-5.812c-1-.776-2.163-.763-3.4-1.032a8.849 8.849 0 0 0-3.553.184 21.164 21.164 0 0 0-4.063 1.561A8.326 8.326 0 0 0 14.672 18a14.134 14.134 0 0 0-1.441 5.81s3.1 4.514 3.392 6.312a5.058 5.058 0 0 1-.93 3.52l1.331 1.5 3.149-.585.775 1.264 1.131.7 10.349-1.975-.112-2.005-.062-.554s3.211-1.841 3.647-2.6a7.445 7.445 0 0 0 .3-2.837m-13.557 4.377a3.074 3.074 0 0 1-2.913.223A3.419 3.419 0 0 1 17.233 29a4.426 4.426 0 0 1-.107-3.551 2.432 2.432 0 0 1 1.849-1.349 2.3 2.3 0 0 1 1.755.246l.8.268a14.2 14.2 0 0 1 2.005 3.007 2.346 2.346 0 0 1-.889 3.306m4.054 1.507l-.242-.363-.5-.5.063.992-.216.048-.373-2.1a3.765 3.765 0 0 1 .363-1.423 5.181 5.181 0 0 1 .949 1.437 13.514 13.514 0 0 1 .318 1.763zM31.886 28a3.061 3.061 0 0 1-2.686 1.141 2.378 2.378 0 0 1-2.35-2.516 13.951 13.951 0 0 1 .351-3.58l.625-.62a2.1 2.1 0 0 1 1.388-1.01 2.468 2.468 0 0 1 2.273.339 4.486 4.486 0 0 1 1.616 3.194A3.356 3.356 0 0 1 31.886 28" fill="#997500"/><path d="M34.222 25.031c-1.261-1.376-1.3-3.616-1.514-5.584A6.728 6.728 0 0 0 31.8 16.5l-5.873 2.571 3.245-5.07a8.485 8.485 0 0 0-3.3-1.789 8.823 8.823 0 0 0-3.557-.029 21.129 21.129 0 0 0-4.15 1.316 8.33 8.33 0 0 0-3.665 3.074c-1.589 2.616-1.324 7.3-1.324 7.3s2.359 3.1 2.546 4.915a3.653 3.653 0 0 1-.994 2.909l1.094 2.129 3.832-.134 1.334 2.165 10.246-1.7.008-2.007-.029-.556s3.316-1.646 3.8-2.375a7.426 7.426 0 0 0 .472-2.814zm-12.533 4.925a3.08 3.08 0 0 1-2.922.049 3.42 3.42 0 0 1-2.365-2.3 4.428 4.428 0 0 1 .106-3.551 2.428 2.428 0 0 1 1.927-1.233 2.3 2.3 0 0 1 1.737.351l.78.315a14.222 14.222 0 0 1 1.822 3.121 2.347 2.347 0 0 1-1.085 3.247m4.485 2.176l-.247-.582-.161.056-.042.659-.438.051-.394-2.094a3.77 3.77 0 0 1 .348-1.421 5.168 5.168 0 0 1 .964 1.428 13.49 13.49 0 0 1 .336 1.758zm4.915-4.547a3.057 3.057 0 0 1-2.746.979 2.358 2.358 0 0 1-2.2-2.65 13.124 13.124 0 0 1 .565-3.554l.661-.581a2.091 2.091 0 0 1 1.446-.924 2.466 2.466 0 0 1 2.249.474 4.487 4.487 0 0 1 1.422 3.284 3.362 3.362 0 0 1-1.4 2.972" fill="#fbd20c"/><g class="F" opacity=".18"><g clip-path="url(#A)"><g clip-path="url(#B)"><path transform="matrix(.697928 -.716168 .716168 .697928 -10.279 25.244)" d="M-10.065-10.041h69.701v69.696h-69.701z" fill="url(#C)"/></g><g clip-path="url(#D)"><path d="M4.04 11.094h.023v.022H4.04z" fill="url(#E)"/></g></g></g><path d="M4.483 13.465l-.019-.021v.011l.023.01" fill="#997500"/><g fill="#72631b"><path d="M46.905 14.108L41.073 8 34 4.1 23.987 2.812h-6.051a15.309 15.309 0 0 1-.994 2.07s.039-1.43-.2-1.677l-6.3 5.42-5.256 6.513-3.253 8.01.2 8.8 4.163 8.276 1.269 2 7.22 5.954 5.75 1.946 1.706-1.439 1.675 1.835 8.727-.2 7.806-3.908 4.131-4.8-.608-1.3 1.349.475 2.746-2.955 2.285-13.552-.827-2.44zm-2.923 17.615c-.535 2.088-2.938 5.818-4.368 7.432a19.606 19.606 0 0 1-4.094 3.759 28.073 28.073 0 0 1-9 1.975 20.619 20.619 0 0 1-4.74-.472 26.945 26.945 0 0 1-7.044-3.356A22.428 22.428 0 0 1 10.2 35.68c-.95-1.9-2.373-6.022-2.416-8.146a24.251 24.251 0 0 1 1.441-7.491 21.519 21.519 0 0 1 2.752-4.473 32.322 32.322 0 0 1 4.323-3.678 22.364 22.364 0 0 1 4.5-2.735 23.44 23.44 0 0 1 7.912-.335 25 25 0 0 1 5.79 1.851A24.694 24.694 0 0 1 40.267 15a24.431 24.431 0 0 1 3.415 6.623 26.651 26.651 0 0 1 .3 10.1"/><path d="M45.905 13.108L40.073 7 33 3.1 22.987 1.812h-6.051a15.309 15.309 0 0 1-.994 2.07s.039-1.43-.2-1.677l-6.3 5.42-5.256 6.513-3.253 8.01.2 8.8 4.163 8.276 1.269 2 7.22 5.954 5.75 1.946 1.706-1.439 1.815 1.884 8.587-.245 7.806-3.908 4.131-4.8-.608-1.3 1.349.475 2.746-2.955 2.285-13.556-.827-2.44zm-2.923 17.615c-.535 2.088-2.938 5.818-4.368 7.432a19.606 19.606 0 0 1-4.094 3.759 28.073 28.073 0 0 1-9 1.975 20.619 20.619 0 0 1-4.74-.472 26.945 26.945 0 0 1-7.044-3.356A22.428 22.428 0 0 1 9.2 34.68c-.95-1.9-2.373-6.022-2.416-8.146a24.251 24.251 0 0 1 1.441-7.491 21.519 21.519 0 0 1 2.752-4.473 32.322 32.322 0 0 1 4.323-3.678 22.364 22.364 0 0 1 4.5-2.735 23.44 23.44 0 0 1 7.912-.335A25 25 0 0 1 33.5 9.673 24.694 24.694 0 0 1 39.267 14a24.431 24.431 0 0 1 3.415 6.623 26.651 26.651 0 0 1 .3 10.1"/></g><path d="M30.944 41.284l-.763 2.225 1.659-.067-.896-2.158z" fill="#997500"/><path d="M6.366 21.235l.596 2.856-.767-1.883-2.229.378 2.4-1.351z" fill="#7a5f04"/><g fill="#fbd20c"><path d="M4.063 11.117l-.018-.017v.011l.023.011M46 13.154l-6.15-7.325L32.9 1.71 22.951.085 16.94 1.777l-.089 3.3a24.415 24.415 0 0 0-1-2.939L9.214 5.451l-5.477 6.323-3.518 7.9.712 11.292 4.275 8.305 8.127 6.457 4.587 1.536c1.046-.646 4.452-2.293 4.452-2.293l-.912 1.513a6.152 6.152 0 0 0-.29 1.18l8.839.2 7.948-3.651 4.276-4.653-.533-1.893a12.563 12.563 0 0 1 1.648.869l2.493-2.649 2.626-13.137zM41.965 29.63c-.6 2.07-3.117 5.722-4.608 7.3a20.176 20.176 0 0 1-4.208 3.607 14.247 14.247 0 0 1-2.205.735l.268 1.313-1.092-1.11a30.212 30.212 0 0 1-6.033.757 20.743 20.743 0 0 1-4.72-.646A27.053 27.053 0 0 1 12.42 38a22.687 22.687 0 0 1-4.342-5.52c-.89-1.937-2.181-6.1-2.159-8.215a16.279 16.279 0 0 1 .222-2.049l-1.914.334 2.092-1.291a23.045 23.045 0 0 1 1.292-4.453 22.212 22.212 0 0 1 2.894-4.364A32.494 32.494 0 0 1 14.958 8.9a22.828 22.828 0 0 1 4.587-2.582 23.1 23.1 0 0 1 7.926-.067 25.736 25.736 0 0 1 5.722 2.026A24.638 24.638 0 0 1 38.8 12.8a23.766 23.766 0 0 1 3.206 6.746 26.484 26.484 0 0 1-.045 10.086"/></g><g fill="#ffdb29"><path d="M25.279 28.788a2.2 2.2 0 0 0-.457 2.021 8.99 8.99 0 0 0 .3 1.286c.021.062.09.247.233.231l-.4-1.6a3.123 3.123 0 0 1 .328-1.941m-9.53-.042a3.555 3.555 0 0 1-.97 2.905 2.571 2.571 0 0 0 .97-2.905m-2.562-5.383a4.878 4.878 0 0 0 .038.5 22.226 22.226 0 0 1 .9-4.482c1.058-3.277 2.895-5.22 7.882-7.087-5.883 1.266-9 3.483-8.824 11.071M4.063 11.117l-.018-.017v.011l.023.011m5.146-5.671l-5.477 6.323-3.518 7.9.022.312 2.026-3.83c1.87-3.9 4.9-7.036 7.192-10.2 1.447-1 5.21-3.162 6.3-3.785z"/><path d="M15.871 2.067l.285.836L11 5.3a11.037 11.037 0 0 0-2.41 2.01 35.744 35.744 0 0 0-6.323 8.739A19.409 19.409 0 0 0 .5 23.116c-.038.81-.28-3.549-.28-3.549l3.518-7.9L9.214 5.34zm2.539 20.078A3.54 3.54 0 0 0 15.8 23.7c-.562 1.273.072 3.267.748 4.482-.509-1.4-.641-3.347 0-4.078A2.93 2.93 0 0 1 18.5 22.9a4.451 4.451 0 0 1 1.7.392l.76.269a3.938 3.938 0 0 0-2.545-1.42m7.785 4.43a10.309 10.309 0 0 1 .427-3.706 3.273 3.273 0 0 1 4-1.837c-3.268-1.356-5.663 1.855-4.431 5.543m5.55-10.144l-5.678 2.583c-.022.022-.022.022-.045.022h-.044v.022c.254-.087 1.78-.719 3.215-1.318l2.683-1.122z"/><path d="M24.888.4c-2.4.535-7.949 2.315-7.949 2.315v-.938h.023L22.951.085zm-8.527 3.2C9.328 5.6 3.978 13.383 2.92 17.631c-1.021 4.1-1.777 7.187-1.365 7.324.69.229 1.01-3.448 2.983-7.459a26.624 26.624 0 0 1 12.2-12.691l-.378-1.202m.624-.06l-.067 1.062a38.827 38.827 0 0 1 4.119-1.782 7.938 7.938 0 0 0-4.052.72"/></g><g class="O" opacity=".31"><g clip-path="url(#F)"><g clip-path="url(#G)"><path transform="matrix(.731139 -.682228 .682228 .731139 -10.26 23.579)" d="M-10.042-10.028h69.655v69.67h-69.655z" fill="url(#H)"/></g></g></g></g></g></g></svg>