<?xml version="1.0" encoding="utf-8"?>
<svg viewBox="0 0 100 100" xmlns="http://www.w3.org/2000/svg">
  <path d="M 51.9 44.783 C 51.457 44.582 50.984 44.452 50.5 44.399 L 50.573 50.615 C 51.117 50.516 51.634 50.307 52.093 50.001 C 52.551 49.69 52.92 49.267 53.167 48.773 C 53.402 48.307 53.528 47.794 53.536 47.273 C 53.544 46.765 53.405 46.265 53.136 45.834 C 52.839 45.368 52.408 45.001 51.9 44.783 Z M 30.636 46.934 L 30.398 50.711 L 34.325 50.649 L 33.473 46.934 L 30.636 46.934 Z M 92.512 46.312 L 8.598 7.794 L 13.642 88.957 L 71.862 57.477 L 69.356 51.127 L 75.94 55.273 Z M 36.288 59.233 L 35.165 54.925 L 30.3 54.894 L 29.958 59.233 L 21.258 59.264 L 25.531 35.978 L 35.478 35.978 L 42.617 59.202 Z M 59.961 47.756 C 59.883 48.966 59.644 50.16 59.249 51.307 C 58.883 52.402 58.33 53.425 57.614 54.332 C 56.984 55.133 56.25 55.847 55.431 56.456 C 54.61 57.067 53.725 57.588 52.791 58.008 C 51.849 58.432 50.862 58.749 49.848 58.954 C 48.831 59.16 47.796 59.264 46.757 59.264 C 46.507 59.264 46.257 59.264 46.008 59.248 L 45.258 59.202 L 43.031 35.844 L 44.559 35.844 C 45.723 35.844 46.967 35.89 48.29 35.983 C 49.594 36.073 50.886 36.286 52.149 36.619 C 53.38 36.942 54.558 37.438 55.649 38.093 C 56.741 38.752 57.66 39.661 58.331 40.745 C 58.978 41.772 59.436 42.907 59.686 44.095 C 59.948 45.296 60.041 46.528 59.961 47.756 Z"/>
</svg>