<?xml version="1.0" encoding="utf-8"?>
<svg version="1.1" x="0px" y="0px" width="109px" height="104px" viewBox="0 0 109 104" xmlns="http://www.w3.org/2000/svg">
  <clipPath id="clip">
    <polygon points="27.7,63.2 25.5,9.9 84,9.9 84,63.2 57.5,90.1 &#9;&#9;&#9;&#9;"/>
  </clipPath>
  <g class="st30" style="clip-path: url(#clip);">
    <path d="M47.6,55.1c0,0-2.2-0.1-2.2,1.8c0,2.4,2.3,2.2,2.3,2.2L64.1,59c0,0,1.7,0,1.7-1.9c0-1.8-1.8-1.9-1.8-1.9H47.6z"/>
    <path d="M58.2,31.9c-6.7-2.3-10.8-2.3-10.8-2.3l-5.1,15.6c0,0,0.8,3.7,4.1,7.8c0.3,0.4,0.7,0.9,1.8,0.9h15.6 c0.5-0.2,0.9-0.7,1.2-0.9c3-3.2,3.2-17.3,3.2-17.3S64.9,34.2,58.2,31.9z"/>
    <polygon points="42,32.3 37.4,36.5 41.7,43.1 44.4,34.9 &#9;&#9;&#9;&#9;"/>
    <path d="M37,35.3l4.5-3.9c0,0-1-3-1.4-4.1c-0.3-0.8-0.6-1.9-2.3-1.7c-2.3,0.2-1.7,4.1-1.7,4.1L37,35.3z"/>
    <path d="M47.1,28.4c0,0,7.6,1,12.2,2.5c4.7,1.6,9.2,3.9,9.2,3.9l-2.4-12.3l-19.7-0.4L47.1,28.4z"/>
    <polygon points="46.5,17.2 46.5,20.8 65,21.1 62.2,15.6 51.3,14.5 &#9;&#9;&#9;&#9;"/>
    <path d="M47.1,60.1L58.9,60c0,0,1.2,11.2,0.4,28.4c-0.9,17.2-1.4,23.3-1.4,23.3L38.2,96.5l5.6-24.4c0.2-0.9,0.5-1.9,0.9-2.8 L47.1,60.1z"/>
    <path d="M60.2,60c0,0,1.3,15.5,1.3,24.1s-1.1,27.6-1.1,27.6l8.9-11l-0.6-14.9c-0.1-1.7-0.3-3.4-0.6-5.1l-3.9-20.7L60.2,60z"/>
  </g>
</svg>