<svg id="Layer_2" data-name="Layer 2" xmlns="http://www.w3.org/2000/svg" viewBox="0 0 109.001 104"><title>Artboard 1</title><path d="M73.126,64.064l-5.207-2.221,3.733.212L67.7,59.383l-6.887-2.407-15.2-14.8-2.3-1.925.089-.657L41.092,37.28l.223-.71-1.564-6.231-6.3-3.687-8.437-3.225,3.229,8.441,3.686,6.3,6.231,1.564.71-.223,2.314,2.314.657-.089,1.925,2.3,14.89,15.019,2.407,6.887L66.516,73.1l1.054-2.711.842,4.761L70.056,76.8l2.27-3.61,3.1,2.629a.734.734,0,0,0,1.159-.022l.355-.44.551-.555c.654-.653.091-1.058.091-1.058l-2.629-3.095,3.61-2.27Z"/></svg>