<?xml version="1.0" encoding="utf-8"?>
<svg viewBox="0 0 201 200" xmlns="http://www.w3.org/2000/svg">
  <path d="M69.241,50.543s15.384-8.487,30.237-9.018,23.341-.53,31.3-4.774,8.487-7.427,8.487-7.427l15.915,47.743s-4.244,6.365-14.854,9.548-18.566-1.061-34.481,3.714S90.46,95.1,85.685,98.286Z" style="fill: rgb(76, 162, 220);"/>
  <rect x="75.303" y="46.299" width="5.163" height="105.256" transform="translate(-27.578 30.151) rotate(-18.677)" style="fill: rgb(76, 162, 220);"/>
  <path d="M103,183.5a2.5,2.5,0,0,1-1.562-.548l-25-20a2.5,2.5,0,1,1,3.124-3.9L103,175l23.438-15.952a2.5,2.5,0,0,1,3.124,3.9l-25,20A2.5,2.5,0,0,1,103,183.5Z" style="fill: white;"/>
</svg>
