<?xml version="1.0" encoding="utf-8"?>
<svg version="1.1" x="0px" y="0px" width="109px" height="104px" viewBox="0 0 109 104" xmlns="http://www.w3.org/2000/svg">
  <path d="M30.2,22.1c0,0,2.7,8,0.9,17.3l-0.9-0.2l-1.4,5.1l1.7-0.2c-0.1,4.4,1.7,8.8,4.2,12.6l-1.2,0.6l2.4,7.8l2.6-2.6l6.4,6.4 l-2.6,2.6l7.8,2.4l0.6-1.2c3.8,2.4,8.2,4.3,12.6,4.2L63,78.5l5.1-1.4l-0.2-0.9C80.7,74,83.6,78,88,77.5c-0.1-1-2.5-1.5-2.9-1.8 C70.7,61.1,45.5,36.6,31.4,21.8C30.8,18.9,28.5,18.7,30.2,22.1z M55.3,47.7c2.4,2.4,24.1,24.1,27.1,27.1c-3.3-0.9-8.8-2-15.1-1.3 l-0.3-1.4l-3.4,0.7l-0.1,0.8c-3.1-0.1-6.8-1.5-11.3-4.7l1.3-2.9l-3-2.8l-1.9,1.9l-0.8-0.8l0,0c-1.2-1.2-3.6-3.6-4.8-4.8l0,0 l-0.8-0.8l1.9-1.9l-2.8-3l-2.9,1.3c-3.2-4.5-4.6-8.1-4.7-11.3l0.8-0.1l0.7-3.4l-1.4-0.3c0.6-6.3-0.4-11.8-1.3-15.1L55.3,47.7z"/>
</svg>