<svg id="Layer_1" data-name="Layer 1" xmlns="http://www.w3.org/2000/svg" xmlns:xlink="http://www.w3.org/1999/xlink" viewBox="0 0 500 500"><defs><style>.cls-1{fill:none;}.cls-2{fill:#f6fcfe;}.cls-3{fill:#fff;}.cls-4{fill:#e5302c;}.cls-5{clip-path:url(#clip-path);}.cls-6{fill:#fffdfd;}</style><clipPath id="clip-path"><path class="cls-1" d="M205.406,291.153c-27.578,0-53.562-9-63.289-12.8l21.914-126.084c13.306,4.336,45.316,13.45,79.221,13.45,15.515,0,29.622-1.953,41.933-5.8,29.752-9.3,52.3-11.254,65.966-11.254.98,0,1.891.011,2.739.028L330,202.829l-56.581,17.152,23.5,5.555-11.784,5.12,25.9,10.911L274.84,262,309,263.71l-9.976,27.257a151.781,151.781,0,0,0-37.527-4.694,214.245,214.245,0,0,0-37.065,3.3A110.174,110.174,0,0,1,205.406,291.153Z"/></clipPath></defs><title>Artboard 1</title><g id="flag-dropped"><path class="cls-2" d="M162.965,399.022a17.5,17.5,0,0,0-1.929-5.641,12.5,12.5,0,0,0-4.056-4.465c-.53-.351-1.081-.663-1.64-.959l-3.855,3.925,1.319-5.046c-.4-.144-.807-.282-1.222-.4a29.907,29.907,0,0,0-6.01-1.071q-3.1-.234-5.838-.235H137.34l2.15,39.327q.585.053,1.172.079t1.173.026a23.027,23.027,0,0,0,4.861-.522,21.248,21.248,0,0,0,4.666-1.593,22.835,22.835,0,0,0,4.226-2.612,19.792,19.792,0,0,0,3.542-3.577,17.968,17.968,0,0,0,2.736-5.093,24.892,24.892,0,0,0,1.319-5.979A23.657,23.657,0,0,0,162.965,399.022Zm-10.822,7.468a4.524,4.524,0,0,1-1.416,1.672,5.161,5.161,0,0,1-1.954.835l.195-8.461a5.445,5.445,0,0,1,1.759.522,3.415,3.415,0,0,1,1.514,1.437,3.726,3.726,0,0,1,.44,1.958,5.109,5.109,0,0,1-.538,2.037Z"/><path class="cls-2" d="M202.756,424.507l-10.14-17.655a12.124,12.124,0,0,0,3.012-3.408,14.779,14.779,0,0,0,1.732-4.293,15.3,15.3,0,0,0,.352-4.615,13.158,13.158,0,0,0-1.08-4.374,10.632,10.632,0,0,0-2.735-3.676,12.373,12.373,0,0,0-3.715-2.173,18.75,18.75,0,0,0-4.293-1.02,37.27,37.27,0,0,0-4.367-.268,56.16,56.16,0,0,0-7.6.51c-.314.043-.611.08-.916.121l-1.8,6.127-.634-5.822c-1.189.139-2.31.258-3.354.352l.2,40.087,14.407.161-.3-14.865,7.53,14.811Zm-17.62-27.288a5.1,5.1,0,0,1-2.008,1.851,6.757,6.757,0,0,1-2.459.7l-.3-8.908a3.959,3.959,0,0,1,.753-.054,5.986,5.986,0,0,1,2.008.322,3.933,3.933,0,0,1,2.084,1.5,3.788,3.788,0,0,1,.652,2.227A4.674,4.674,0,0,1,185.136,397.219Z"/><path class="cls-2" d="M236.919,399a23.653,23.653,0,0,0-2.687-7.747,16.463,16.463,0,0,0-5.079-5.56,12.93,12.93,0,0,0-7.469-2.135,16.544,16.544,0,0,0-9.171,2.609,20.554,20.554,0,0,0-6.705,7.3,29.725,29.725,0,0,0-2.12,4.8,25.538,25.538,0,0,0-1.282,10.647c.027.292.072.578.113.865l5.486-.841-4.8,3.806c.144.433.3.861.484,1.282a17.319,17.319,0,0,0,2.786,4.506,16.882,16.882,0,0,0,3.846,3.32,17.436,17.436,0,0,0,4.585,2.029,18.2,18.2,0,0,0,4.954.686,17.669,17.669,0,0,0,7.248-1.555,16.226,16.226,0,0,0,6.064-4.717,17.014,17.014,0,0,0,2.663-4.9,26.433,26.433,0,0,0,1.282-5.692A29.7,29.7,0,0,0,236.919,399Zm-14.348,10.357a4.552,4.552,0,0,1-5.3,1,4.423,4.423,0,0,1-1.652-1.344,5.842,5.842,0,0,1-1.01-2.187,6.966,6.966,0,0,1-.025-2.925,8.756,8.756,0,0,1,.641-2.029,6.7,6.7,0,0,1,1.109-1.713,5.4,5.4,0,0,1,1.529-1.186,4.163,4.163,0,0,1,1.947-.448,3.413,3.413,0,0,1,1.9.527,4.34,4.34,0,0,1,1.356,1.423,6.605,6.605,0,0,1,.789,2.055,11.392,11.392,0,0,1,.247,2.372,6.147,6.147,0,0,1-1.531,4.453Z"/><path class="cls-2" d="M268.79,396.835a12.066,12.066,0,0,0-1.006-4.325,9.118,9.118,0,0,0-2.385-3.4,11.551,11.551,0,0,0-3.321-2.025,15.534,15.534,0,0,0-3.835-.975,32.426,32.426,0,0,0-3.976-.25c-1.469,0-2.927.074-4.377.2l-1.736,6.447-1.577-6.049c-1.856.253-3.556.455-5.079.6l.187,37.351,12.909.15-.28-13.85h.327a5.182,5.182,0,0,0,.889.05,17.281,17.281,0,0,0,4.139-.5,12.4,12.4,0,0,0,3.812-1.649,10.47,10.47,0,0,0,3.064-3.125,13.973,13.973,0,0,0,1.8-4.125A15.158,15.158,0,0,0,268.79,396.835Zm-11.249,2.25a4.414,4.414,0,0,1-1.824,1.725,5.471,5.471,0,0,1-2.2.651l-.233-8.3a3.261,3.261,0,0,1,.654-.051,4.772,4.772,0,0,1,1.778.3,3.546,3.546,0,0,1,1.871,1.4,3.632,3.632,0,0,1,.584,2.075,4.619,4.619,0,0,1-.63,2.2Z"/><path class="cls-2" d="M301.139,396.457a12.218,12.218,0,0,0-1.019-4.384,9.264,9.264,0,0,0-2.418-3.446,11.7,11.7,0,0,0-3.367-2.053,15.809,15.809,0,0,0-3.887-.988,32.713,32.713,0,0,0-4.03-.253,48.614,48.614,0,0,0-6.851.481q-3.39.481-6.093.735l.12,23.938,3.924-.6-3.911,3.1.057,11.422,13.086.152-.285-14.039h.332a5.112,5.112,0,0,0,.9.05,17.434,17.434,0,0,0,4.2-.507,12.557,12.557,0,0,0,3.864-1.672,10.6,10.6,0,0,0,3.1-3.168,14.136,14.136,0,0,0,1.825-4.181A15.373,15.373,0,0,0,301.139,396.457Zm-11.4,2.281a4.5,4.5,0,0,1-1.849,1.749,5.559,5.559,0,0,1-2.229.658l-.237-8.413a3.36,3.36,0,0,1,.664-.051,4.846,4.846,0,0,1,1.8.3,3.587,3.587,0,0,1,1.9,1.42,3.684,3.684,0,0,1,.592,2.1,4.69,4.69,0,0,1-.643,2.237Z"/><polygon class="cls-2" points="329.904 385.632 323.075 385.618 320.341 391.646 319.781 385.611 304.569 385.58 305.204 424.561 327.854 424.509 327.854 416.472 315.553 416.786 315.504 411.463 323.265 411.411 323.265 404.94 314.918 404.94 314.869 398.052 329.367 398.052 329.904 385.632"/><path class="cls-2" d="M351.24,413.764l4.932,1.487a19.805,19.805,0,0,0,1.578-3.179,25.958,25.958,0,0,0,1.57-6.2,24.758,24.758,0,0,0-.031-6.447,18.355,18.355,0,0,0-1.836-5.964,13.143,13.143,0,0,0-4.094-4.814,20.523,20.523,0,0,0-5.561-2.79,31.272,31.272,0,0,0-6.244-1.339q-3.236-.358-6.092-.46l-2.5-.087.985,41.168q.611.077,1.222.125t1.225.07a23.95,23.95,0,0,0,5.1-.367,22.146,22.146,0,0,0,4.926-1.494,23.793,23.793,0,0,0,4.5-2.573,20.517,20.517,0,0,0,3.75-3.533Zm-2.871-9.04a5.332,5.332,0,0,1-.627,2.108,4.7,4.7,0,0,1-1.534,1.695,5.362,5.362,0,0,1-2.068.8l.475-8.833a5.724,5.724,0,0,1,1.821.61,3.6,3.6,0,0,1,1.537,1.557A3.9,3.9,0,0,1,348.369,404.724Z"/></g><g id="flag-red"><path class="cls-3" d="M135.555,284.548c8.1,3.36,37.886,20.016,70.877,20.016a123.357,123.357,0,0,0,21.356-1.784c11.994-2.113,23.8-5,35.544-5,25.162,0,38.654,10.315,44.467,2.565,2.722-3.63,15.125-45.677,15.125-45.677l-12.4.453L329.73,240l-14.138-8.364,15.2-9.483-17.737-4.538,25.431-3.988s12.4-29.683,21.175-51.425c4.982-12.349,10.3-21.78,7.747-22.643-9.532-3.224-46.771-.1-78.45,9.806-11.437,3.576-30.885,6.3-45.53,6.3-42.206,0-81.547-12.456-81.953-12.608l.157-4.353.031-.119-.015-.055"/><path class="cls-3" d="M137.127,303.9l25.247-157.928c.956-.066.924-1.457.924-1.457l1.058-6.4a1.782,1.782,0,0,0-.938-1.765l.866-3.348-1.148-4.047.836-1.337,1.334-7.465-3.543,1.911-2.741-2.949-1.334,7.464.361,1.535-2.642,3.42-.069,3.481a1.78,1.78,0,0,0-1.456,1.369l-1.057,6.4s-.478,1.308.406,1.677L135.746,245.3l-10.793,62.488S103.715,427.763,103.542,429.37s1.948,3.448,4.357,3.75c3.814.478,6.166-.6,6.511-2.17C115.035,428.1,137.127,303.9,137.127,303.9Z"/><polygon class="cls-3" points="173.815 95.296 167.314 99.665 172.924 86.35 171.008 67.098 154.554 103.281 145.174 117.828 157.46 127.908 164.271 129.033 179.146 123.442 174.946 106.65 173.815 95.296"/><path class="cls-4" d="M205.406,291.153c-27.578,0-53.562-9-63.289-12.8l21.914-126.084c13.306,4.336,45.316,13.45,79.221,13.45,15.515,0,29.622-1.953,41.933-5.8,29.752-9.3,52.3-11.254,65.966-11.254.98,0,1.891.011,2.739.028L330,202.829l-56.581,17.152,23.5,5.555-11.784,5.12,25.9,10.911L274.84,262,309,263.71l-9.976,27.257a151.781,151.781,0,0,0-37.527-4.694,214.245,214.245,0,0,0-37.065,3.3A110.174,110.174,0,0,1,205.406,291.153Z"/><g class="cls-5"><path class="cls-6" d="M501.048,293l-29.64,21.615L232.949,175.2-20.886,350.313l-29.1-27.483c2.542-1.306,286.143-181.872,286.143-181.872Z"/><path class="cls-6" d="M485.016,350.286,455.376,371.9,230.5,246.039,21.147,392.345-.959,367.173C1.583,365.867,229.409,204.05,229.409,204.05Z"/></g><polygon class="cls-3" points="176.479 344.232 164.807 343.964 164.941 336.988 186.139 336.854 186.005 323.169 158.983 323.169 156.787 330.432 157.138 323.169 148.909 323.169 148.373 373.211 165.679 373.211 165.344 353.154 176.681 353.422 176.479 344.232"/><polygon class="cls-3" points="201.75 366.899 208.709 372.825 224.224 372.824 223.892 356.026 206.098 356.226 205.832 323.161 190.164 323.161 190.628 372.825 204.416 372.825 201.75 366.899"/><path class="cls-3" d="M261.7,324.161l-7.241-.232-5.572,5.337,2.082-5.449-10.166-.326-12.3,48.527,18.279.519,1.34-9.072,10.218.393,1.741,9.105,13.3.361ZM248.922,354.7l1.04-7.9,5.961.191,1.257,7.844Z"/><path class="cls-3" d="M316.8,347.211a13.33,13.33,0,0,0-4.575-4.038,20.763,20.763,0,0,0-6.479-2.123,54.281,54.281,0,0,0-8.13-.692l-1.946,12.161a12.541,12.541,0,0,1,2.951.231,12.78,12.78,0,0,1,2.743.842,6.23,6.23,0,0,1,2.034,1.4,3.217,3.217,0,0,1,.9,1.962,2.737,2.737,0,0,1-.859,2.184,5.738,5.738,0,0,1-2.634,1.486l-.654.058a8.817,8.817,0,0,1-9.022-4.432,11.768,11.768,0,0,1-1.491-4.9,17.985,17.985,0,0,1,.312-5.363q1.083-4.839,3.858-6.963a12.6,12.6,0,0,1,6.7-2.473,26.107,26.107,0,0,1,6.312.26q3.372.525,6.876,1.4l1.535-6.789-6.675,1.469,7.688-5.947.523-2.312a97.575,97.575,0,0,0-10.148-1.532A52.319,52.319,0,0,0,297,323.03a32.508,32.508,0,0,0-7.855,1.655,20.213,20.213,0,0,0-6.549,3.745,20.955,20.955,0,0,0-4.875,6.263,29.323,29.323,0,0,0-2.835,9.21,36.116,36.116,0,0,0-.371,6.191,30.105,30.105,0,0,0,.774,6.09,29.154,29.154,0,0,0,1.955,5.687,22.28,22.28,0,0,0,3.107,4.926,18.586,18.586,0,0,0,3.9,3.5A19.88,19.88,0,0,0,289,372.641a25.418,25.418,0,0,0,5.34,1.171,27.721,27.721,0,0,0,11.619-1.168,21.608,21.608,0,0,0,5.431-2.624c.133-.084.256-.176.385-.263l1.451-8.774,1.411,6.386c.185-.193.373-.384.548-.585a17.948,17.948,0,0,0,2.641-3.99,16.462,16.462,0,0,0,1.416-4.439,13.677,13.677,0,0,0-.019-4.642A15.076,15.076,0,0,0,316.8,347.211Z"/></g></svg>