<svg xmlns="http://www.w3.org/2000/svg" viewBox="0 0 73.488 37.491" xmlns:v="https://vecta.io/nano"><path d="M36.279 0C13.861 0 0 19.153 0 19.153s12.465 18.338 36.279 18.338c25.675 0 37.21-18.338 37.21-18.338S60.558 0 36.279 0zm-4.163 9.652a4.86 4.86 0 0 1 4.858 4.86 4.86 4.86 0 0 1-4.859 4.858 4.86 4.86 0 0 1-3.435-8.295 4.86 4.86 0 0 1 3.436-1.423zm4.26 23.441A36.8 36.8 0 0 1 7.632 19.069 41.76 41.76 0 0 1 25.056 6.725a13.89 13.89 0 0 0 20.771 18.107 13.89 13.89 0 0 0 2.181-18.244c7.03 2.349 13.23 6.684 17.849 12.481 0 0-9.139 14.024-29.481 14.024z"/></svg>