<svg xmlns="http://www.w3.org/2000/svg" xmlns:xlink="http://www.w3.org/1999/xlink" width="109" height="104" xmlns:v="https://vecta.io/nano"><defs><path id="A" d="M18.9 43.2h35.6v17.6H18.9z"/></defs><clipPath id="B"><use xlink:href="#A"/></clipPath><path d="M19.2 43.2s1.8 4.5 8 6.3c5.4 1.6 9.7 0 16.7-2.8 9.1-3.6 13 6 10.6 9.8s-11.3 5-19 3.8c-20-2.9-16.3-17.1-16.3-17.1z" clip-path="url(#B)"/><defs><path id="C" d="M54.5 43.2h35.6v17.6H54.5z"/></defs><clipPath id="D"><use xlink:href="#C"/></clipPath><path d="M89.8 43.2s-1.8 4.5-8 6.3c-5.4 1.6-9.7 0-16.7-2.8-9.1-3.6-13 6-10.6 9.8s11.3 5 19 3.8c20-2.9 16.3-17.1 16.3-17.1z" clip-path="url(#D)"/></svg>