<svg xmlns="http://www.w3.org/2000/svg" viewBox="0 0 187.139 278.798"><path d="M158.139 25l-57-25-62.07 20.031L0 66.914l.976 55.528 27 52 23.032 13.541 27.689 6.094L78.139 205l-33.969 1.468-5.1 22.117 5.07 5.411 35-1-1 22.395v20.177l24.558 3.233 6.442-8.8v-33l14-1 24.139.442 9.558-22.923-4.945-7.047-39.752-2.472.249-10.033 23.177-9.333 24.574-14.634 20.7-34.993 6.3-63.007zm-45.4 136.891l-41.023-5.86-33.488-27.628-4.368-43.256 21.953-31.628 40.558-11.163L137.86 57.24l18.418 43.535-15.907 41.86z"/></svg>
