<svg id="Layer_1" data-name="Layer 1" xmlns="http://www.w3.org/2000/svg" xmlns:xlink="http://www.w3.org/1999/xlink" viewBox="0 0 500 500"><defs><style>.cls-1{fill:none;}.cls-2{fill:#fff;}.cls-3{fill:#e5302c;}.cls-4{clip-path:url(#clip-path);}</style><clipPath id="clip-path"><path class="cls-1" d="M205.406,291.153c-27.578,0-53.562-9-63.289-12.8l21.914-126.084c13.306,4.336,45.316,13.45,79.221,13.45,15.515,0,29.622-1.953,41.933-5.8,29.752-9.3,52.3-11.254,65.966-11.254.98,0,1.891.011,2.739.028L330,202.829l-56.581,17.152,23.5,5.555-11.784,5.12,25.9,10.911L274.84,262,309,263.71l-9.976,27.257a151.781,151.781,0,0,0-37.527-4.694,214.245,214.245,0,0,0-37.065,3.3A110.174,110.174,0,0,1,205.406,291.153Z"/></clipPath></defs><title>Artboard 1</title><g id="flag-grabbed"><path class="cls-2" d="M148.967,394.01a9.922,9.922,0,0,1,5.65-1.62,20.363,20.363,0,0,1,5.138.711q2.716.711,5.515,1.733l3.5-11.482q-2.066-.651-4.1-1.175l-3.612,3.678,1.116-4.27c-.528-.117-1.056-.233-1.581-.336a40.642,40.642,0,0,0-7.856-.8,25.338,25.338,0,0,0-6.537.824A16.194,16.194,0,0,0,140.577,384a17.833,17.833,0,0,0-4.439,5.03,26.218,26.218,0,0,0-2.986,7.731,32.851,32.851,0,0,0-.753,5.315,27.525,27.525,0,0,0,.188,5.314,26.384,26.384,0,0,0,1.184,5.06,19.683,19.683,0,0,0,2.179,4.49,15.776,15.776,0,0,0,2.932,3.325,16.194,16.194,0,0,0,3.713,2.388,20.073,20.073,0,0,0,4.277,1.421,21.551,21.551,0,0,0,9.578-.114,17.161,17.161,0,0,0,4.627-1.847,14.01,14.01,0,0,0,3.336-2.5,15.469,15.469,0,0,0,2.449-3.24,14.735,14.735,0,0,0,1.479-3.724,12.51,12.51,0,0,0,.323-4.007,13.639,13.639,0,0,0-1.506-5.8,11.322,11.322,0,0,0-3.444-3.837,16.622,16.622,0,0,0-5.139-2.33,42.378,42.378,0,0,0-6.591-1.223L149.509,405.8a9.784,9.784,0,0,1,2.394.426,10.233,10.233,0,0,1,2.18.938,5.191,5.191,0,0,1,1.56,1.364,2.894,2.894,0,0,1,.592,1.763,2.422,2.422,0,0,1-.861,1.818,4.579,4.579,0,0,1-2.26,1.08h-.538a7.3,7.3,0,0,1-4.466-1.278,7.949,7.949,0,0,1-2.583-3.241,10.7,10.7,0,0,1-.861-4.348,16.383,16.383,0,0,1,.646-4.6Q146.546,395.63,148.967,394.01Z"/><path class="cls-2" d="M210.461,424.506l-10.869-18.7a12.89,12.89,0,0,0,3.229-3.609,15.621,15.621,0,0,0,1.856-4.548,16.014,16.014,0,0,0,.376-4.889,13.783,13.783,0,0,0-1.156-4.632,11.281,11.281,0,0,0-2.933-3.894,13.276,13.276,0,0,0-3.982-2.3,20.307,20.307,0,0,0-4.6-1.08,40.227,40.227,0,0,0-4.681-.284,61.253,61.253,0,0,0-6.536.35l-2.091,7.127-.738-6.779c-2.184.282-4.183.506-5.97.666l.215,42.462,15.443.17-.323-15.745,8.071,15.688Zm-18.886-28.9a5.443,5.443,0,0,1-2.152,1.961,7.336,7.336,0,0,1-2.637.739l-.323-9.436a4.2,4.2,0,0,1,.807-.057,6.456,6.456,0,0,1,2.153.341,4.214,4.214,0,0,1,2.233,1.592,3.991,3.991,0,0,1,.7,2.359,4.92,4.92,0,0,1-.781,2.5Z"/><path class="cls-2" d="M240.976,382.158H223.812l-8.824,42.4,5.256-.02,2.633-6.96,1.1,6.946L230,424.5l.861-7.9,8.394.057,1.668,7.844,10.922-.057Zm-9.685,26.83.646-6.878h4.9l1.238,6.765Z"/><path class="cls-2" d="M285.474,406.857a10.561,10.561,0,0,0-3.282-4.491,9.575,9.575,0,0,0-5.462-2.018,7.822,7.822,0,0,0,3.874-3.24,10.8,10.8,0,0,0,1.561-4.747,11.483,11.483,0,0,0-.646-4.916,7.611,7.611,0,0,0-2.8-3.752,9.1,9.1,0,0,0-2.5-1.279,21.2,21.2,0,0,0-2.986-.767,29.227,29.227,0,0,0-3.121-.4q-1.561-.114-2.852-.114a46.937,46.937,0,0,0-4.8.255l-1.2,4.463-1.086-4.165c-.93.146-1.867.319-2.813.527l.861,42.4q2.583.113,5.7.426a63.113,63.113,0,0,0,6.349.313q1.882,0,3.954-.2a20.14,20.14,0,0,0,4.009-.8,12.508,12.508,0,0,0,3.578-1.762,8.254,8.254,0,0,0,2.61-3.1,17.06,17.06,0,0,0,1.883-6.622A13.99,13.99,0,0,0,285.474,406.857ZM271.888,388.7a2.666,2.666,0,0,1,1.264,1.137,3.16,3.16,0,0,1,.4,1.535,3.011,3.011,0,0,1-.431,1.535,3.229,3.229,0,0,1-1.237,1.193,3.985,3.985,0,0,1-1.507.569l-.107-6.424A3.72,3.72,0,0,1,271.888,388.7Zm2.179,25.665a5.247,5.247,0,0,1-2.179,1.9,4.791,4.791,0,0,1-1.507.511l-.161-9.151a6.276,6.276,0,0,1,.888.057,5.315,5.315,0,0,1,.78.17,4.169,4.169,0,0,1,2.34,1.62,3.962,3.962,0,0,1,.673,2.388,5.012,5.012,0,0,1-.834,2.5Z"/><path class="cls-2" d="M317.785,406.857a10.561,10.561,0,0,0-3.282-4.491,9.582,9.582,0,0,0-5.462-2.018,7.822,7.822,0,0,0,3.874-3.24,10.82,10.82,0,0,0,1.561-4.747,11.483,11.483,0,0,0-.646-4.916,7.615,7.615,0,0,0-2.8-3.752,9.1,9.1,0,0,0-2.5-1.279,21.164,21.164,0,0,0-2.986-.767,29.227,29.227,0,0,0-3.121-.4q-1.562-.114-2.852-.114a47.231,47.231,0,0,0-4.815.256,44.836,44.836,0,0,0-5.085.824l.693,34.126,6.365-.976-6.284,4.982.087,4.273q2.583.113,5.7.426a63.133,63.133,0,0,0,6.35.313q1.882,0,3.954-.2a20.14,20.14,0,0,0,4.009-.8,12.508,12.508,0,0,0,3.578-1.762,8.243,8.243,0,0,0,2.609-3.1,17.039,17.039,0,0,0,1.884-6.622A13.99,13.99,0,0,0,317.785,406.857ZM304.2,388.7a2.659,2.659,0,0,1,1.265,1.137,3.16,3.16,0,0,1,.4,1.535,3.01,3.01,0,0,1-.43,1.535A3.224,3.224,0,0,1,304.2,394.1a3.98,3.98,0,0,1-1.506.569l-.107-6.424A3.712,3.712,0,0,1,304.2,388.7Zm2.18,25.665a5.256,5.256,0,0,1-2.18,1.9,4.785,4.785,0,0,1-1.506.511l-.162-9.151a6.3,6.3,0,0,1,.889.057,5.3,5.3,0,0,1,.779.17,4.171,4.171,0,0,1,2.341,1.62,3.966,3.966,0,0,1,.673,2.388,5.014,5.014,0,0,1-.836,2.5Z"/><polygon class="cls-2" points="350.122 382.158 330.03 382.117 327.626 387.42 327.133 382.111 322.196 382.101 322.896 424.563 347.862 424.506 347.862 415.752 334.303 416.094 334.249 410.296 342.804 410.239 342.804 403.19 333.604 403.19 333.55 395.687 349.53 395.687 350.122 382.158"/><path class="cls-2" d="M381.976,396.767a18.909,18.909,0,0,0-2.125-6.139,13.651,13.651,0,0,0-4.467-4.86,21.61,21.61,0,0,0-5.945-2.7,33.244,33.244,0,0,0-6.618-1.165q-3.419-.256-6.43-.256h-2.637l2.368,42.8q.645.058,1.291.086t1.291.028a25.558,25.558,0,0,0,5.354-.568,23.551,23.551,0,0,0,5.139-1.734c.57-.268,1.123-.564,1.67-.874l-3.939-4.148,7,2.113a21.587,21.587,0,0,0,3.82-3.827,19.476,19.476,0,0,0,3.013-5.542,26.8,26.8,0,0,0,1.453-6.509A25.526,25.526,0,0,0,381.976,396.767ZM370.058,404.9a4.936,4.936,0,0,1-1.561,1.818,5.685,5.685,0,0,1-2.152.91l.215-9.209a6.022,6.022,0,0,1,1.937.569,3.732,3.732,0,0,1,1.668,1.563,4.019,4.019,0,0,1,.485,2.132A5.529,5.529,0,0,1,370.058,404.9Z"/></g><g id="flag-red"><path class="cls-2" d="M135.555,284.548c8.1,3.36,37.886,20.016,70.877,20.016a123.357,123.357,0,0,0,21.356-1.784c11.994-2.113,23.8-5,35.544-5,25.162,0,38.654,10.315,44.467,2.565,2.722-3.63,15.125-45.677,15.125-45.677l-12.4.453L329.73,240l-14.138-8.364,15.2-9.483-17.737-4.538,25.431-3.988s12.4-29.683,21.175-51.425c4.982-12.349,10.3-21.78,7.747-22.643-9.532-3.224-46.771-.1-78.45,9.806-11.437,3.576-30.885,6.3-45.53,6.3-42.206,0-81.547-12.456-81.953-12.608l.157-4.353.031-.119-.015-.055"/><path class="cls-2" d="M137.127,303.9l25.247-157.928c.956-.066.924-1.457.924-1.457l1.058-6.4a1.782,1.782,0,0,0-.938-1.765l.866-3.348-1.148-4.047.836-1.337,1.334-7.465-3.543,1.911-2.741-2.949-1.334,7.464.361,1.535-2.642,3.42-.069,3.481a1.78,1.78,0,0,0-1.456,1.369l-1.057,6.4s-.478,1.308.406,1.677L135.746,245.3l-10.793,62.488S103.715,427.763,103.542,429.37s1.948,3.448,4.357,3.75c3.814.478,6.166-.6,6.511-2.17C115.035,428.1,137.127,303.9,137.127,303.9Z"/><polygon class="cls-2" points="173.815 95.296 167.314 99.665 172.924 86.35 171.008 67.098 154.554 103.281 145.174 117.828 157.46 127.908 164.271 129.033 179.146 123.442 174.946 106.65 173.815 95.296"/><path class="cls-3" d="M205.406,291.153c-27.578,0-53.562-9-63.289-12.8l21.914-126.084c13.306,4.336,45.316,13.45,79.221,13.45,15.515,0,29.622-1.953,41.933-5.8,29.752-9.3,52.3-11.254,65.966-11.254.98,0,1.891.011,2.739.028L330,202.829l-56.581,17.152,23.5,5.555-11.784,5.12,25.9,10.911L274.84,262,309,263.71l-9.976,27.257a151.781,151.781,0,0,0-37.527-4.694,214.245,214.245,0,0,0-37.065,3.3A110.174,110.174,0,0,1,205.406,291.153Z"/><g class="cls-4"><path class="cls-2" d="M501.048,293l-29.64,21.615L232.949,175.2-20.886,350.313l-29.1-27.483c2.542-1.306,286.143-181.872,286.143-181.872Z"/><path class="cls-2" d="M485.016,350.286,455.376,371.9,230.5,246.039,21.147,392.345-.959,367.173C1.583,365.867,229.409,204.05,229.409,204.05Z"/></g><polygon class="cls-2" points="176.479 344.232 164.807 343.964 164.941 336.988 186.139 336.854 186.005 323.169 158.983 323.169 156.787 330.432 157.138 323.169 148.909 323.169 148.373 373.211 165.679 373.211 165.344 353.154 176.681 353.422 176.479 344.232"/><polygon class="cls-2" points="201.75 366.899 208.709 372.825 224.224 372.824 223.892 356.026 206.098 356.226 205.832 323.161 190.164 323.161 190.628 372.825 204.416 372.825 201.75 366.899"/><path class="cls-2" d="M261.7,324.161l-7.241-.232-5.572,5.337,2.082-5.449-10.166-.326-12.3,48.527,18.279.519,1.34-9.072,10.218.393,1.741,9.105,13.3.361ZM248.922,354.7l1.04-7.9,5.961.191,1.257,7.844Z"/><path class="cls-2" d="M316.8,347.211a13.33,13.33,0,0,0-4.575-4.038,20.763,20.763,0,0,0-6.479-2.123,54.281,54.281,0,0,0-8.13-.692l-1.946,12.161a12.541,12.541,0,0,1,2.951.231,12.78,12.78,0,0,1,2.743.842,6.23,6.23,0,0,1,2.034,1.4,3.217,3.217,0,0,1,.9,1.962,2.737,2.737,0,0,1-.859,2.184,5.738,5.738,0,0,1-2.634,1.486l-.654.058a8.817,8.817,0,0,1-9.022-4.432,11.768,11.768,0,0,1-1.491-4.9,17.985,17.985,0,0,1,.312-5.363q1.083-4.839,3.858-6.963a12.6,12.6,0,0,1,6.7-2.473,26.107,26.107,0,0,1,6.312.26q3.372.525,6.876,1.4l1.535-6.789-6.675,1.469,7.688-5.947.523-2.312a97.575,97.575,0,0,0-10.148-1.532A52.319,52.319,0,0,0,297,323.03a32.508,32.508,0,0,0-7.855,1.655,20.213,20.213,0,0,0-6.549,3.745,20.955,20.955,0,0,0-4.875,6.263,29.323,29.323,0,0,0-2.835,9.21,36.116,36.116,0,0,0-.371,6.191,30.105,30.105,0,0,0,.774,6.09,29.154,29.154,0,0,0,1.955,5.687,22.28,22.28,0,0,0,3.107,4.926,18.586,18.586,0,0,0,3.9,3.5A19.88,19.88,0,0,0,289,372.641a25.418,25.418,0,0,0,5.34,1.171,27.721,27.721,0,0,0,11.619-1.168,21.608,21.608,0,0,0,5.431-2.624c.133-.084.256-.176.385-.263l1.451-8.774,1.411,6.386c.185-.193.373-.384.548-.585a17.948,17.948,0,0,0,2.641-3.99,16.462,16.462,0,0,0,1.416-4.439,13.677,13.677,0,0,0-.019-4.642A15.076,15.076,0,0,0,316.8,347.211Z"/></g></svg>