<svg xmlns="http://www.w3.org/2000/svg" viewBox="0 0 39.771 28.929" xmlns:v="https://vecta.io/nano"><path d="M39.306 16.61c1.458-7.456-.679-9.445-4.024-12.558C32.365 1.339 27.768.071 20.699.006 13.827-.057 8.924.285 4.231 6.285c-3.64 4.653-4.9 8.232-3.9 14.232a39.7 39.7 0 0 1 .46 7.883 18.87 18.87 0 0 0 2.773-3.766c1.046-1.838.823-2.32 1.884-4.442.753-1.168 1.887-2.039 3.209-2.465.325 1.821.285 4.975-.977 6.767 4.256-.907 8.093-6.209 8.093-6.209a6.47 6.47 0 0 1 .07 3.628c-.593 2.2-1.465 2.651-2.442 3.628 1.351-.157 5.389-.677 7.047-2.024 2.232-1.817 2.751-4.017 3.628-5.61.212.6.332 4.744-.7 5.681 2.584-.272 4.161-.351 5.93-1.465 1.968-1.244 3.469-3.105 4.266-5.292a8.41 8.41 0 0 1 .807 3.4c.179 3.489.97 4.14 1.574 5.21a27.5 27.5 0 0 0 3.07 3.488 41.3 41.3 0 0 1 .283-12.319z"/></svg>