<?xml version="1.0" encoding="utf-8"?>
<svg width="109" height="104" xmlns="http://www.w3.org/2000/svg">
  <path d="M55.8 23.1v22l2.5 2.1 16.9.6c2.1-.1 2.5-1.1 2.5-1.1s-.3-4.7-1.4-9.1-2.9-7.8-7.4-10.6c-5.1-3.3-13.1-3.9-13.1-3.9zm-1.8 0v22l-2.5 2.1-16.9.6c-2.1-.1-2.5-1.1-2.5-1.1s.3-4.7 1.4-9.1 2.9-7.8 7.4-10.6c5.2-3.3 13.1-3.9 13.1-3.9zm23.7 25.4s-1.3.6-1.9.6c-3.3.1-17.2-.2-17.2-.2l-1.7 1.4-.1 2.1-1.8 1-1.8-1-.2-2.1-1.7-1.4s-13.9.4-17.2.2c-.7 0-1.9-.6-1.9-.6l-.4 4.9s10-.4 14.9 1.3c4 1.3 6.1 6.3 6.1 6.3l.3 2.7-.9 3.1.3 3.6 2.4.9h0 0 0 0l2.4-.9.3-3.6-.9-3.1.3-2.7s2.1-5 6.1-6.3C68 53.1 78 53.4 78 53.4l-.3-4.9zm-43.1 6.2s.2 5.9.7 7.7c.4 1.4.7 3.1 2.5 5.1 2.1 2.3 4.8 3.4 4.8 3.4l.8 9.8-12.7-4.1.2-18.6.9-3 2.8-.3zm40.8 0s-.2 5.9-.7 7.7c-.4 1.4-.6 3.1-2.4 5.1-2 2.3-4.6 3.4-4.6 3.4l-.8 9.8L79 76.6 78.9 58l-.9-3-2.6-.3z"/>
</svg>