<?xml version="1.0" encoding="utf-8"?>
<svg width="109" height="104" xmlns="http://www.w3.org/2000/svg">
  <path d="M58.7 55.1L73.3 65l5.9-3.7c.5-3.4-1.4-8-1.3-12.5.2-8.2.8-22.2 1.2-27.5 0 0-3.9-1.7-12.1-1.3-4.7.2-11.1 3.2-11.1 3.2l4.4 20.4c.9 4.3-.6 10-1.6 11.5zm20.6 8.1l-5.9 3.7-16-11.4c-.5.7-1.1 1.4-1.7 2.1l19.7 19.1 4-.2c-.1 0-.2-12.4-.1-13.3zm-25.5-5.5c-.5.5-2.1 2.2-3.2 2.9-.6.4-1.3.7-2 1L56.5 78l17-1.1-19.7-19.2z"/>
  <path d="M46.9 61.1l-4.7 2.1c-2.8 1.3-4.9 1.7-9.4 5.3-3.3 2.8-3.2 7-3.2 7l8.6 2.5 16.9.2-8.2-17.1z"/>
  <path d="M46.9 61.1l-4.7 2.1c-2.8 1.3-4.9 1.7-9.4 5.3-3.3 2.8-3.2 7-3.2 7l8.6 2.5 16.9.2-8.2-17.1z"/>
</svg>