<svg xmlns="http://www.w3.org/2000/svg" viewBox="0 0 249.609 248.93"><path d="M0 159.356l22.628 57.983 45.107 31.59 65.909-2.6 44.547-36.062 17.678-55.862L191 119.862l-15.267-23.888 32.1-30.672 10.884 21.767 14.232 8.372 8.18-6.089 5.216-22.376 3.269-44.092L248.2 8.742 237.763.005 214.81 0l-30.14 2.232-28.465 4.465-7.535 11.163 6.419 10.605 31.814 14.232-35.07 29.533-22.988-9.791-32.036-3.346-49.676 10.046-34.4 36.477zm101.448-65.128L142.014 111l16.249 38.025-10.422 32.609-23.908 24.928-52.242 1-27.351-29.586 1.639-51.812 24.593-24.095z"/></svg>
