<svg xmlns="http://www.w3.org/2000/svg" viewBox="0 0 109 104" xmlns:v="https://vecta.io/nano"><path d="M83.12 73.428l-1.62-1.421-1.421.609-5.279-7.308-5.687-5.278 3.045-3.654 3.045-.2s1.421-3.856.792-4.668c-.792-.812-4.263.812-4.263.812l-.589 2.638L67.9 57.8l-.812-1.015-1.02 1.015-23.141-29.437-16.869-7.916 6.719 14.209 3.654-1.218-2.639 3.248.2.609 29.437 23.141-1.035 1.015 1.035 1.015-2.659 3.045-2.822.609s-1.624 3.451-.812 4.263 4.669-.812 4.669-.812l.2-3.045 3.654-3.045 5.258 5.684 7.328 5.278-.63 1.421 1.645 1.827 1.218 2.233 4.466-.609.609-4.466z"/></svg>