<svg xmlns="http://www.w3.org/2000/svg" viewBox="0 0 27.642 49.95" xmlns:v="https://vecta.io/nano"><path d="M7.921 20.834l1.954-.279 10.139-4.466 7.628 31.07-1.767 2.326-1.117.465-2.325-.093L7.921 20.834zm11.093-8.373l-1.3-.372-1.011.412-.033-1.143 1.21-2.207.468-6.39-1.809.571-.2-2.551-.919-.482-.8.382-.024 2.51-2-.945 1.024 6.45 1.65 2.622.052 1.744-2.134.87-1.257-3.684.534-2.459-1.366-6.26L9.527 2.59 8.612.2 7.595 0l-.656.591.691 2.414-2.188-.337 1.611 3.387 1.2 2.506 2.327 2.045 1.321 3.85-3.091 1.262-1.22-2.409.144-2.512L5.41 4.824l-1.388 1.3-1.275-2.218-1.037-.04-.555.687 1.058 2.271L0 6.831l2.118 3.093 2.574.991-1.95-.055.736 1.042a1.91 1.91 0 0 0 .539.513l2.3 1.455 1.215 2.37-1.445.59-.372 2.512 1.767.744 1.861-.279 10.511-4.465.744-.931z"/></svg>