<svg xmlns="http://www.w3.org/2000/svg" viewBox="0 0 109 104" xmlns:v="https://vecta.io/nano"><path d="M96.3,50.36l-14.61,12.75,4.62,2.2c-2.84,6.56-10.87,21.15-26.88,23.16v-30.19h11.19v-7.49h-11.19v-8.11c8.52-1.75,14.94-9.29,14.94-18.31,0-10.32-8.38-18.7-18.69-18.7s-18.7,8.38-18.7,18.7c0,9.02,6.42,16.56,14.95,18.31v8.11h-13.05v7.49h13.05v30.17c-7.89-1.05-14.65-5.5-20.11-13.26-2.45-3.47-4.18-6.99-5.28-9.68l5.05-2.4-14.61-12.75-1.59,20.46,4.41-2.1c4.13,9.58,14.69,27.48,35.88,27.48,22.64,0,33.6-19.06,37.38-27.68l4.82,2.3-1.59-20.46ZM44.48,24.36c0-6.18,5.02-11.2,11.2-11.2s11.19,5.02,11.19,11.2-5.02,11.19-11.19,11.19-11.2-5.02-11.2-11.19Z" stroke="#000" stroke-miterlimit="10" stroke-width="3"/><path d="M24.87 58.9h0l-3.61.97 3.61-.97z"/></svg>