<?xml version="1.0" encoding="utf-8"?>
<svg width="109" height="104" xmlns="http://www.w3.org/2000/svg">
  <path d="M75.7 23.8s6.3-3.6 11.2-.1 7.2 7.8 7.9 11.8-.7 8.7-.7 8.7-4.7 4.9-10.8 1.4c-4.8-2.8-7.4-5.6-9.7-10.1-2.9-5.6-2.3-12.1-2.3-12.1l4.4.4zm17.5 26.9c2.4-2 1.6-5.1 1.6-5.1s-2 2.4-4.8 3-5.4-.1-7.1-1.3l-3-2.3-.1 4.3c3.7 4 5.9 3.9 8 3.9 3.1 0 5.4-2.5 5.4-2.5zm-.4 6.1c2.4-2 1.6-5.1 1.6-5.1s-2 2.4-4.8 3c-2.9.7-5.4-.2-7.1-1.3l-2.7-2.1v4.1c3 2.9 6.2 3.3 8.3 3.4 3.1.1 4.7-2 4.7-2z"/>
  <path d="M25.7 45.6c4.8-2.8 7.4-5.6 9.7-10.1 2.9-5.6 2.3-12.1 2.3-12.1l-4.4.4s-6.3-3.6-11.2-.1-7.2 7.8-7.9 11.8c-.1.4-.1.9-.1 1.3v2.7a26.42 26.42 0 0 0 .8 4.6s4.7 5.1 10.8 1.5zm.5 1.7c-1.7 1.2-4.2 2-7.1 1.3-2.8-.7-4.8-3-4.8-3s-.8 3.1 1.6 5.1c0 0 2.3 2.5 5.4 2.4 2.1 0 4.3.1 8-3.9l-.1-4.3-3 2.4zm.4 6.1c-1.7 1.2-4.3 2-7.1 1.3-2.9-.7-4.8-3-4.8-3s-.9 3.1 1.6 5.1c0 0 1.6 2.1 4.8 2 2.1 0 5.3-.5 8.3-3.4v-4.1c-.2 0-2.2 1.6-2.8 2.1z"/>
  <path d="M39.2 27.5c-.4-.2-.7-.4-.7-.4l-.6 2 1.1.7v-.1c.2-.9.1-1.4.2-2.2z" fill="#fff"/>
  <path d="M44.6 30.5c2.8 1.2 7.8 1.6 9.9 1.6s6.9-.5 9.7-1.6c1.2-.5 4.1-2.3 5.5-3-.2-2.3 0-3.9 0-3.9l-5-3.6s-3.5 3.2-6.2 3.9c-1.2.2-2.5.5-3.9.5h-.2c-1.2 0-2.8-.2-3.9-.5-2.8-.7-6.2-3.9-6.2-3.9l-5.1 3.7s.2 1.6 0 3.9c1.3.6 4.3 2.5 5.4 2.9zm28.6 8.6c-1.6-3-2.8-6.7-3.2-9.2l-4.6 2.8c-3 1.4-8.7 2.3-11.7 2.3-2.6 0-7.1-.9-10.1-2.3-.9-.5-3.2-1.8-4.6-2.8-.5 2.5-1.6 6.2-3.2 9.2-2.8 4.4-5.3 5.8-5.3 5.8s.7 14.3 1.2 18c.2 1.2 1.6 7.4 2.1 8.7 1.2 6.2.5 7.8 1.4 11.5 0 0 9.2 2.3 18.4 2.3h2.1c9.2 0 18.4-2.3 18.4-2.3.9-3.7.2-5.3 1.4-11.5.5-1.4 1.8-7.6 2.1-8.7.5-3.7 1.2-18 1.2-18s-2.9-1.5-5.6-5.8z"/>
</svg>