<svg xmlns="http://www.w3.org/2000/svg" viewBox="0 0 109.001 104" xmlns:v="https://vecta.io/nano"><path d="M87.407 75.635l-.88.024a9.2 9.2 0 0 1 4.492-5.421 11.321 11.321 0 0 0-8.173 5.521l-.715.019c.389-2.471 1.469-5.878 4.469-7.867a13.437 13.437 0 0 0-8.669 7.982l-1.925.052.862-2.241h-.02a28.662 28.662 0 0 0 1.952-6.555 13.77 13.77 0 0 1 3.227-6.222 13.778 13.778 0 0 1-5.866-3.837 29.5 29.5 0 0 0-5.136-4.767l4.06-8.579 6.3-5.2 5.406-8.5-3.257-.056 4.675-2.731 1.1-2.367-4.679-.99 1.559-4.276A.822.822 0 0 0 85.9 18.5a.851.851 0 0 0-.188-.082l-.6-.2-.8-.364c-.94-.433-1.147.315-1.147.315l-2.231 3.962-3.785-2.911-3.236 6.876-2 8.024.143 8.168-3.68 8.512a17.085 17.085 0 0 0-4.676-1.4c-1.506-.226-5.675.041-13.22 2.02-9.286 2.436-9.28 4.813-15.186 3.98-3.207-.417-4.449 3.546-2.3 11.174-.363-.528-.833-1.167-1.455-1.956a30.533 30.533 0 0 0-5.911-5.652 40.559 40.559 0 0 1 4.293 7.949 27.3 27.3 0 0 1 1.368 5.721 18.859 18.859 0 0 0-6.163-3.211 35.355 35.355 0 0 1 4.494 5.742L10.784 73.4c-.359-.465 0 10.419 0 10.419h87.05l.382-6.279zM50.45 57.218l5.417-1.418 2.944 11.22 1.827 6.965-5.764.1-.947-3.611-14.092 3.771a8.767 8.767 0 0 1-1.523-4.1l14.549-3.736z"/></svg>
