<svg xmlns="http://www.w3.org/2000/svg" viewBox="0 0 109.001 104" xmlns:v="https://vecta.io/nano"><path d="M99.426 24.198l-15.335.292-.901-18.43-.651-.004-17.108-1.318 1.674 16.454.222 18.931 17.209 1.319 19.681-1.585-4.791-15.659zM21.873 3.599l17.96 3.099-2.167 17.944-.565 13.412H10.842l-7.498-.85 1.09-8.108 1.451-6.949 14.147.235 1.841-18.783zM5.469 84.268l.752-17.142 30.692 1.422 1.694 5.835-.747 23.756-17.988-.183-.6-13.857-13.803.169zm65.37 13.065l1.584-20.074-.214-11.921 28.831 1.003 1.72 16.444-13.839-.556-.997 14.063-17.085 1.041z"/></svg>