<?xml version="1.0" encoding="utf-8"?>
<svg viewBox="0 0 109.001 104" xmlns="http://www.w3.org/2000/svg">
	<path d="M71.7,58.2c-2.2-5.5,0-6.1,0-15.7c0-7.8-0.8-11.9-1.4-13.3c-2.6-6.2-7-8.3-10.6-10.1c-3.5-1.8-5.2-4.7-5.2-4.7 s-1.7,2.9-5.2,4.7c-3.5,1.8-8.1,4.3-10.6,10.1c-0.6,1.4-1.4,5.5-1.4,13.3c0,9.6,2.3,10.2,0,15.7c-1.3,3.2,2.8,5.5,11.9,5h3.1 l0.1-19.2h-9.5l0-5.6h11.6h11.6l0,5.6h-9.5l0.1,19.2h3.1C68.9,63.7,73,61.4,71.7,58.2z"/>
	<path d="M72.9,66.1c-3.1,1.1-7.1,2-11.9,2H49.8c-6.6,0-9.1-1.1-12.9-2.7c-7.8,1.7-13.5,7.3-16.7,11.1l6.7,5.4L37,87.3L51,88.4 l10.9,1.1l3-6.2l2.3,5.5l9.6-2.7l8.5-4l3.5-3.8C86.3,73.1,81.3,68.7,72.9,66.1z"/>
</svg>
