<svg xmlns="http://www.w3.org/2000/svg" viewBox="0 0 83.766 84" xmlns:v="https://vecta.io/nano"><path d="M83.766 83.163l-3.628-13.117-.279-17.86-7.844-3.022 7.844-4.513-3.069-25.116 2.511-17.023-8.93-1.954-6.7 1.4L31.859 0l-2.232 9.488L25.441.837 0 5.027l6.34 19.16 1.079 9.293 6.022 3.915-5.861 3.622.282 13.4L4.232 84l30.7-1.954 21.2.485 1.934-4.716 3.372 4.837 4.535-6.883-.909 6.966zm-57.751-7.419l-9.5-26.08 3.449-1.5 8.989 26.494zm14.81-15.9c-2.665.676-4.592-.461-8.589.554s-3.866 1.019-5.083 1.758L23.58 50.145a19.7 19.7 0 0 1 7.6-1.918c3.688.026 5.793.117 7.811-.851s2.181-1.749 2.181-1.749l3.438 12.009c-.989 1.127-2.317 1.903-3.785 2.21zm23.079-38.417L57.14 37.868l-2.96-1 4.5-12.13-7.438-11.659-5.762 11.848 4.923 5.625-2.184 2.308-8.181-9.645-4.558 14.65-3.036-.7 6.351-19.914 4.542 4.9 7.251-15.009 9.627 12.963 3.341-7.412 11.036 22.975-3.292 1.024z"/></svg>