<?xml version="1.0" encoding="utf-8"?>
<svg id="settings" viewBox="0 0 109.001 104" xmlns="http://www.w3.org/2000/svg">
  <path style="stroke: black; stroke-linecap: round; stroke-linejoin: round; stroke-width: 2px;" d="M 98.019 59.468 L 98.019 40.145 L 86.582 40.145 C 85.725 36.937 84.44 33.859 82.761 30.993 L 90.87 22.884 L 77.207 9.222 L 69.034 17.393 C 66.183 15.757 63.127 14.507 59.946 13.678 L 59.946 2.072 L 40.617 2.072 L 40.617 13.806 C 37.494 14.662 34.496 15.925 31.7 17.561 L 23.355 9.215 L 9.692 22.878 L 18.101 31.287 C 16.506 34.068 15.28 37.043 14.452 40.139 L 2.551 40.139 L 2.551 59.468 L 14.459 59.468 C 15.288 62.564 16.515 65.539 18.11 68.32 L 9.7 76.727 L 23.362 90.389 L 31.708 82.043 C 34.503 83.678 37.501 84.941 40.625 85.798 L 40.625 97.532 L 59.946 97.532 L 59.946 85.936 C 63.127 85.104 66.183 83.854 69.034 82.219 L 77.207 90.389 L 90.87 76.725 L 82.761 68.617 C 84.439 65.752 85.725 62.673 86.582 59.465 L 98.019 59.468 Z M 51.426 69.38 C 37.664 69.38 29.063 54.483 35.944 42.564 C 42.825 30.646 60.027 30.646 66.908 42.564 C 68.477 45.283 69.304 48.365 69.304 51.504 C 69.304 61.377 61.299 69.38 51.426 69.38 Z"/>
</svg>
