<?xml version="1.0" encoding="utf-8"?>
<svg id="Layer_1" data-name="Layer 1" viewBox="0 0 109 104" xmlns="http://www.w3.org/2000/svg">
  <path d="M57.653,50.349l3.186-8.2-6.213-2.389,1.434-3.664,7.646,2.947,7.646,2.947L70,45.65l-6.212-2.39-2.708,7.169H72.069a32.822,32.822,0,0,0,1.991-4.3c1.992-5.1,2.47-8.045,2.47-9.08-.08-4.7-2.47-7.248-4.381-9.319a8.933,8.933,0,0,1-2.23-4.381A9.061,9.061,0,0,1,65.3,25.1c-2.788.239-6.452.8-9.478,3.983-.717.8-2.31,3.265-4.3,8.363-2.39,6.292-1.115,7.248-3.9,10.275a1.9,1.9,0,0,0,.079,2.708h9.957Zm-13.974.336h2.947L31.174,37.861l-1.275-3.5-6.292-6.531-.876,2.549-2.867-2.151-1.115.558h-.08v.08l-.319,1.194,2.629,2.469L18.35,33.878l7.567,4.859,4.062.637Z"/>
  <path d="M44.236,51.72,24.165,40.808l-.239-1.035-1.991.079L20.5,37.224l-2.39-.558.319,1.673-1.115-1.832-5.576-1.274-.159-.08.08.08H11.5l.239.079L18.191,41.6l3.106-.557.956,1.752,1.036-.4L40.254,51.72Zm6.771-2.549L43.52,39.932l-.638-3.744-4.858-7.566L36.67,30.931,34.2,28.3l-1.2.319h-.08l-.478,1.115,2.071,2.947-2.867.8,6.531,6.293,3.823,1.354,6.531,8.044ZM42.245,69.96l-6.85.079-4.938.239c-1.673.08-3.266.4-4.859.558l5.576.239,5.974-.16,5.973-.079,4.859-.478Zm41.736-5.815a44.749,44.749,0,0,0-4.7-.478H70.043a37.961,37.961,0,0,0-6.691.558l4.859.239,5.018.159c2.071.159,3.982-.159,6.053-.079a46.659,46.659,0,0,0,4.7-.239,1,1,0,0,0,.478-.08A1.183,1.183,0,0,1,83.981,64.145Z"/>
  <path d="M34.36,60.8l-3.027-.239a46.152,46.152,0,0,0-7.407.319l5.5.557a34.079,34.079,0,0,0,5.655-.557h.079C34.917,60.88,34.6,60.8,34.36,60.8ZM23.687,72.031A20.469,20.469,0,0,1,28.466,74.9a15.869,15.869,0,0,1,2.549,4.779H23.687V72.031M22.412,69.96V81.031H32.926s-1.593-5.177-3.5-7.089c-1.832-1.991-7.01-3.982-7.01-3.982ZM79.68,73.942c-1.832,1.991-3.5,7.089-3.5,7.089H86.69V69.96S81.512,71.951,79.68,73.942Zm5.735,5.735H78.087c.08-.239,1.195-3.584,2.39-4.859s4.54-2.628,4.859-2.708v7.567Zm-59.9-32.656H83.5v4.3H25.519Zm53.843-3.983L80.557,42l-1.673-1.991H76.628L76.15,41.6h1.937ZM49.865,41.6l.16-.8.185-.726-6.133-.07,1.2,1.592Zm-8.257,0-.239-.318-3.345-1.274H34.36L36.112,41.6Zm-11.629,0h2.23l-1.832-1.513-1.194-.079-1.593,2.23,1.354.876Z"/>
  <path d="M82.866,44.95l-.876,1.2.478.716H26.156l1.354-1.752L26,44.392,22.97,48.454H86.132Z"/>
  <path d="M95.645,29.574l-2.867-.319L91.9,30.768,91.026,31.8l.4.876L86.8,36.025,83.459,39.61,81.149,37.7l-.159-1.912s-2.469-.876-2.947-.478c-.478.478.478,2.709.478,2.709l1.672.4,1.832,2.071-.637.478.637.637L69.68,51.238h7.646l6.292-7.965.638.638.637-.638L86.8,44.946l.4,1.832s2.23,1.035,2.708.478c.478-.478-.478-2.947-.478-2.947l-1.912-.159L85.61,41.84l3.584-3.346,3.345-4.619.876.4,1.195-1.035,1.434-.8Z"/>
  <circle cx="54.511" cy="54.428" r="2.151"/>
  <path d="M55.148,55.7H53.794l-.717,4.222h2.868Zm-9.4-7.885V60.88l.637.637,6.85,6.69,1.672,1.673L56.5,68.128l6.213-6.691.637-.637V47.817ZM61.042,59.924l-6.212,6.69-1.753-1.672-5.1-5.018v-9.8H60.963v9.8Z"/>
  <path d="M61.042,59.924l-6.212,6.77-1.753-1.752,1.753,1.752,6.212-6.77v-9.8h0Z"/>
  <path d="M47.98,50.127h0v9.8l5.1,5.018-5.1-5.018Z"/>
  <path d="M85.973,61.756l-.08-4.062-2.708-.8,2.708-1.832.159-6.611H22.97v6.293l.4,4.221-.4,4.142v2.31l1.2,1.194-1.2,1.354V80.234H86.052V71l-.478-4.062ZM29.342,54.269H47.821V51H61.2v3.266H80.318V74.34H29.342ZM23.766,79.2V71.951a20.409,20.409,0,0,1,4.779,2.708,15.376,15.376,0,0,1,2.549,4.54Zm61.729,0H78.167a15.376,15.376,0,0,1,2.549-4.54A17.935,17.935,0,0,1,85.5,71.951Z"/>
</svg>