<svg xmlns="http://www.w3.org/2000/svg" viewBox="0 0 102.977 60.782" xmlns:v="https://vecta.io/nano"><path d="M34.703 30.236c-1.447-3.617 0-4.012 0-10.325 0-5.129-.526-7.826-.921-8.746-1.71-4.078-4.6-5.459-6.971-6.642a9.06 9.06 0 0 1-3.419-3.091 9.06 9.06 0 0 1-3.42 3.091c-2.3 1.183-5.327 2.827-6.971 6.642-.394.92-.921 3.617-.921 8.746 0 6.313 1.513 6.708 0 10.325-.854 2.1 1.842 3.617 7.826 3.288h2.039l.066-12.63h-6.248v-3.679H31.02v3.679h-6.248l.065 12.626h2.039c5.985.333 8.682-1.18 7.827-3.284zm57.029 1.533c-1.447-3.617 0-4.011 0-10.324 0-5.13-.526-7.826-.92-8.747-1.71-4.077-4.6-5.458-6.971-6.642a9.06 9.06 0 0 1-3.42-3.091 9.06 9.06 0 0 1-3.42 3.091c-2.3 1.184-5.326 2.828-6.97 6.642-.395.921-.921 3.617-.921 8.747 0 6.313 1.512 6.707 0 10.324-.855 2.1 1.841 3.617 7.826 3.288h2.036l.066-12.626h-6.245v-3.683H88.05v3.683h-6.248l.07 12.626h2.038c5.981.329 8.677-1.183 7.822-3.288zm-25.844 4.789c-1.836-4.59 0-5.091 0-13.1 0-6.511-.668-9.933-1.169-11.1-2.17-5.175-5.842-6.928-8.847-8.431a11.5 11.5 0 0 1-4.34-3.922 11.49 11.49 0 0 1-4.341 3.922c-2.921 1.5-6.761 3.59-8.847 8.431-.5 1.168-1.169 4.59-1.169 11.1 0 8.013 1.92 8.514 0 13.1-1.085 2.671 2.337 4.591 9.933 4.174h2.587l.084-16.026h-7.93v-4.674h19.365v4.674h-7.93l.088 16.026h2.587c7.592.417 11.013-1.503 9.929-4.174zm.884 4.692a29.61 29.61 0 0 1-9.932 1.669h-9.348c-3.72.151-7.42-.623-10.767-2.253-6.511 1.419-11.268 6.093-13.939 9.264l5.592 4.508 8.43 4.507 11.686.918 9.1.918 2.5-5.175 1.92 4.591 8.012-2.254 7.095-3.338 2.922-3.172c-2.085-4.339-6.259-8.013-13.271-10.183zm-31.161-2.213c-.447-1.553.543-3.97.776-4.445.3-.573-.941-1.087-1.73-.83-2.514.882-5.161 1.327-7.826 1.315h-7.365c-2.931.119-5.846-.491-8.483-1.776-5.13 1.118-8.878 4.8-10.983 7.3l4.406 3.551 6.642 3.551 9.207.724 1.577.159c4.107-4.756 8.968-8.229 13.779-9.549zm56.91-3.743a23.31 23.31 0 0 1-7.825 1.315H77.33c-2.931.119-5.846-.491-8.483-1.775a3.53 3.53 0 0 0-1.713.824c.427 1.4.935 1.948.339 4.2 6.609 2.094 11.232 5.6 13.761 10.42l4.053.41-.3-3.65 2.685 3.49 7.415-2.08 5.585-2.631 2.3-2.5c-1.638-3.418-4.927-6.312-10.451-8.023z"/></svg>