<svg id="killed" xmlns="http://www.w3.org/2000/svg" viewBox="0 0 500 500"><defs><style>.cls-1{fill:#fff;}</style></defs><title>killed</title><path class="cls-1" d="M251.239,279.276c-.708.023-3.082,4.193-3.465,7.365a113.933,113.933,0,0,0,0,11.7l1.494.144.814-3.565h2.532l1.225,3.421,1.3-.433a71.156,71.156,0,0,0,0-9.964C254.705,284.475,251.948,279.253,251.239,279.276Z"/><path class="cls-1" d="M280.866,241.518c-6.065,0-8.231,3.033-8.231,3.033l-5.2,3.032s-5.2,9.531-6.932,18.629,2.167,13.864,9.532,16.463,13-.433,16.462-2.6,10.831-5.2,11.7-14.3-1.733-16.03-5.2-19.5S286.932,241.518,280.866,241.518Z"/><path class="cls-1" d="M234.536,246.784l-5.2-3.033s-2.167-3.033-8.232-3.033-8.664,1.3-12.13,4.766-6.066,10.4-5.2,19.495,8.231,12.131,11.7,14.3,9.1,5.2,16.463,2.6,11.264-7.365,9.531-16.462S234.536,246.784,234.536,246.784Z"/><path class="cls-1" d="M327.069,230.244a92.407,92.407,0,0,0-12.161-32.081,70.911,70.911,0,0,0-22.979-23.023,55.076,55.076,0,0,0-12-5.565L266.174,181.6l.266-14.925c-5.221-1.231-2.332-.374-8.314-.374q-23.211,0-41.5,10.8a88.491,88.491,0,0,0-30.343,30.225,117.868,117.868,0,0,0-9.595,19.856,97.792,97.792,0,0,0-5.466,21.825,96.54,96.54,0,0,0-.334,22.259,64.888,64.888,0,0,0,5.8,21.168A70.852,70.852,0,0,0,189.3,311.1a64.5,64.5,0,0,0,14.51,11.767L214.2,310.337l-3.9,16.441a83.272,83.272,0,0,0,17.151,6.468,89.7,89.7,0,0,0,22.42,2.836,86.34,86.34,0,0,0,32.8-6.437,72.917,72.917,0,0,0,27.443-19.533,68.852,68.852,0,0,0,12.048-20.293,101.74,101.74,0,0,0,5.8-23.567A112.547,112.547,0,0,0,327.069,230.244ZM307.56,290.973c-3.466,3.466-23.828,9.1-23.828,9.1L283.3,303.1l-2.166,10.831-17.491-.8-24.521.533-17.341-.6-5.2-13-21.662-3.032-3.9-12.564a20.158,20.158,0,0,0,8.665-14.73c.325-3.737-1.876-9.649-2.809-12.981a101.169,101.169,0,0,0-6.289-16.046s3.466-25.56,15.163-38.124c5.413-5.814,13.792-10.522,23.828-13a125.827,125.827,0,0,1,24.694-3.033s19.662,1.2,28.16,8.232c6.2,5.125,9.31,6.677,11.695,9.734s8.234,14.527,8.234,14.527,3.466,6.065,2.6,16.9c-.37,4.627-.139,10.816-.806,15.214a22.313,22.313,0,0,0,3.406,16.412l5.632,8.664S311.026,287.507,307.56,290.973Z"/></svg>