<svg id="kill" xmlns="http://www.w3.org/2000/svg" viewBox="0 0 500 500"><defs><style>.cls-1{fill:#fff;}</style></defs><title>Artboard 1</title><path class="cls-1" d="M170.714,253.791,67.381,278.751l1.383,5.623,104.273-23.529a7.585,7.585,0,0,0-.581-3.256A10.962,10.962,0,0,0,170.714,253.791Z"/><path class="cls-1" d="M324.727,217.882c.55,3.081,1.006,6.113,1.346,9.056l24.491-5.391.473-9.788Z"/><path class="cls-1" d="M123.3,313.23,95.682,323.584c-.211-6.364,4.925-16.978,7.729-25.673,0,0-8.142,14.425-12.779,26.8l-19.811,6.964s-6.315-28.029,12.455-47.73l70.968-15.887S125.142,292.593,123.3,313.23Z"/><path class="cls-1" d="M110.82,240.309,84.1,243.515c2.66,4.708,6.871,7.893,13.607,13.105,0,0-14.584-4.595-24.82-11.76l-28.558,1.273a65.066,65.066,0,0,0,39.621,29.09l75.637-17.5S121.976,254.58,110.82,240.309Z"/><polygon class="cls-1" points="479.548 188.233 420.792 189.23 411.767 194.373 415.885 189.314 407.578 189.455 391.196 198.789 398.671 189.606 372.92 190.043 364.951 205.819 355.636 206.422 355.112 225.371 369.066 219.64 381.701 228.941 479.548 188.233"/><path class="cls-1" d="M325.934,272.97a26.48,26.48,0,0,1-4.564-20.555c.893-5.508.584-13.259,1.08-19.054,1.162-13.565-3.484-21.162-3.484-21.162s-7.841-14.366-11.037-18.194-7.368-5.772-15.674-12.191c-11.391-8.8-37.744-10.309-37.744-10.309s-17.483.2-33.1,3.8c-13.451,3.1-24.683,9-31.938,16.278-15.678,15.735-20.324,47.748-20.324,47.748a122.1,122.1,0,0,1,8.43,20.1c1.25,4.173,4.2,11.578,3.765,16.258-1.162,12.48-11.614,18.449-11.614,18.449l5.226,15.735,29.034,3.8,6.968,16.278,23.244.752,32.866-.668,23.444,1,2.9-13.565.581-3.8s27.292-7.054,31.937-11.4,7.549-18.448,7.549-18.448Zm-101.36,17.906c-9.872,3.256-17.421-.543-22.066-3.256s-14.517-6.511-15.679-17.905,2.323-20.076,6.969-24.417,8.129-5.969,16.259-5.969,11.033,3.8,11.033,3.8l6.968,3.8s6.968,11.937,9.291,23.331S234.445,287.62,224.574,290.876Zm31.1,20.076-1.742.543-1.641-4.286H248.9l-1.092,4.466-2-.18s-.514-10.677,0-14.651,3.7-9.194,4.646-9.224,4.645,6.512,5.226,10.852S255.672,310.952,255.672,310.952Zm60.391-41.237c-1.161,11.394-11.033,15.192-15.679,17.905s-12.194,6.512-22.065,3.256-15.1-9.224-12.775-20.619,9.29-23.331,9.29-23.331l6.969-3.8s2.9-3.8,11.033-3.8,11.613,1.628,16.259,5.969S317.224,258.32,316.063,269.715Z"/></svg>