<svg xmlns="http://www.w3.org/2000/svg" viewBox="0 0 109.001 104" xmlns:v="https://vecta.io/nano"><path d="M53.413 23.747v.006l-.003-.003.003-.003z"/><path d="M53.41 23.75l-.004.003v-.006l.004.003z"/><path d="M77.37 28.075a75.78 75.78 0 0 1-12.778-2.066A32.238 32.238 0 0 1 53.2 19.732h0a32.107 32.107 0 0 1-11.4 6.236 75.827 75.827 0 0 1-12.778 2.019s-.138 22.466.687 27.369 7.554 21.07 23.486 28.862h.005c15.932-7.733 22.662-23.877 23.486-28.776s.684-27.367.684-27.367zM64.336 52.647h-8.562v8.561h-5.519v-8.561h-8.562v-5.52h8.561v-8.562h5.52v8.562h8.562z"/></svg>