<svg xmlns="http://www.w3.org/2000/svg" viewBox="0 0 109.001 104" xmlns:v="https://vecta.io/nano"><path d="M95.127 92.837l8.778 7.547H95.94l-4.507-4.859 3.694-2.688M26.766 75.308l1.42 6.936 6.518 2.763-6.157 3.493-.613 7.053-5.226-4.776-6.897 1.596 2.928-6.445-3.65-6.067 7.035.793 4.642-5.346zm65.619-46.72l2.32 6.746 6.872 1.914-5.699 4.291.304 7.127-5.842-4.094-6.684 2.491 2.088-6.821-4.435-5.588 7.133-.121 3.943-5.945zm-74.311-1.901a2.789 2.789 0 0 0 3.462-1.194C23.7 21.719 29.6 14.144 42.86 12.2c13.732-2.014 24.38 4.024 28.569 6.924a2.793 2.793 0 0 0 3.652-.427h0a2.8 2.8 0 0 0-.415-4.142c-4.483-3.278-15.192-9.4-31.553-8.245C26.546 7.474 19.2 17.672 16.556 22.741a2.805 2.805 0 0 0 1.431 3.912z"/><path d="M86.181 94.354l2.976-2.006 4.584-3.089.923-.621-4.338-2.609.471-9.05-49.715-29.38L58.53 72.815l5.466 2.362-3.829-.134 2.77 3.772 9.925 4.29-6.953-.244 8.59 11.695 10.359-1.824 1.323 1.622zM71.158 53.479l-10.049-6.263a1.2 1.2 0 0 1-.121-1.979L71.313 38.6a1.2 1.2 0 0 0-.679-2.148l-12.05 1.969a1.2 1.2 0 0 1-1.131-1.371l3.265-12.828a1.2 1.2 0 0 0-2-1.053l-9.87 9.116a1.2 1.2 0 0 1-1.938-.458L37.915 19.8a1.2 1.2 0 0 0-2.278.5l.7 14.468a1.2 1.2 0 0 1-1.488 1.017l-18.8-3.756a1.2 1.2 0 0 0-1.136 2.021l12.073 11.816a1.2 1.2 0 0 1-.016 1.734l-14.6 13.765a1.2 1.2 0 0 0 .956 2.067L34.471 61.1a1.2 1.2 0 0 1 1.329 1.2l1.5 16.714a1.2 1.2 0 0 0 2.168.72s8.851-12.034 9.195-12.055L37.594 44.728s-.278-.539-.068-.749c.2-.2.858.187.858.187L59.907 55.23l10.537.477a1.2 1.2 0 0 0 .714-2.228zm-7.435 32.383a37.492 37.492 0 0 1-22.253 1.3 2.537 2.537 0 0 0-1.285 4.908c4.515 1.251 14.415 2.863 26.671-1.944zm23.459-14.703a27.5 27.5 0 0 0 3.078-9.6A2.541 2.541 0 0 0 87.8 58.7h-.085a2.526 2.526 0 0 0-2.554 2.118 22.582 22.582 0 0 1-2.727 7.535z"/></svg>