<svg xmlns="http://www.w3.org/2000/svg" viewBox="0 0 109.001 104" xmlns:v="https://vecta.io/nano"><path d="M62.701 67.157l3.795-2.557 5.844-3.939 1.177-.793-5.531-3.326.601-11.539L5.199 7.543l22.246 32.151 6.97 3.012-4.883-.171 3.532 4.809 12.655 5.469-8.866-.31 10.953 14.911 13.208-2.325 1.687 2.068zm10.103-2.978l29.57 27.37-10.67.515L67.96 69.118l4.844-4.939m-33.388 19.49l2.064-3.597 6.322-7.674-15.604-.474-10.342-.512 1.702 5.623.826 3.603 1.727 6.568 2.615 9.476 7.151-8.29 3.539-4.723zm-18.13-49.184l-4.94-7.619a42.284 42.284 0 0 0-6.372 22.362 38.831 38.831 0 0 0 5.172 19.347l7.024-3.83a30.825 30.825 0 0 1-4.2-15.517 34.339 34.339 0 0 1 3.316-14.743z"/><path d="M52.521 14.682a34.585 34.585 0 0 1 34.545 34.546 32.6 32.6 0 0 1-5.9 19.236l6.3 4.959a39.71 39.71 0 0 0 7.6-24.195A42.512 42.512 0 0 0 24.51 17.244l7.58 4.149a34.358 34.358 0 0 1 20.431-6.711zM72.99 77.31c-5.875 4.619-12.433 6.464-20.469 6.464a34.491 34.491 0 0 1-22.99-8.759l-5.326 5.968a42.474 42.474 0 0 0 28.316 10.791 39.879 39.879 0 0 0 25.964-8.969z"/></svg>