<svg xmlns="http://www.w3.org/2000/svg" viewBox="0 0 109.001 104" xmlns:v="https://vecta.io/nano"><path d="M55.828 43.905l-6.834-4.655-7.712-2.7-13.343-12.734.117-.86-3.025-3.03-1.756-9.09L3.976 1.784l9.055 19.305 9.09 1.756 3.03 3.03.861-.117L38.867 38.88l2.7 7.712 6.106 8.017 1.18-3.035.943 5.331 1.841 1.847 2.542-4.042 3.471 2.944a.821.821 0 0 0 1.3-.025l.4-.493.617-.621c.732-.731.1-1.185.1-1.185l-2.944-3.465 4.042-2.542zm.554 20.182L73.75 94.332l4.899-1.37L56.91 63.294l-.528.793zm5.634-3.287l37.3 38.871 7.887-.742-44.659-38.921-.528.792zm2.159-7.084l33.156 26.818-.935-6.729-31.693-20.882-.528.793z"/></svg>