<svg xmlns="http://www.w3.org/2000/svg" viewBox="0 0 109.001 104" xmlns:v="https://vecta.io/nano"><path d="M100.634 11.919l-7.273.21-.211-7.272-4.689.136.212 7.273-7.273.211.137 4.689 7.273-.212.211 7.272 4.688-.136-.209-7.272 7.273-.211zm-9.215 49.933L88.2 33.779l-5.1-8.405-7.241-5.632-17.434-4.762-15.291 1.755-14.754 7.52-9.389 22.058 5.634 16.795-5.365 8.523 2.414 7.269 13.412 1.755 2.659 9.316 36.75.5 2.169-9.818 14.753-5.266 3.488-8.523-3.486-5.013zm-46.226 7.969L35 68.317l-7.243-8.272 3.22-11.279 7.511-2.758 8.312 3.511L51.094 60.3l-5.9 9.524zm14.8 11.944l-1.169.365-1.1-2.878h-2.28l-.733 3-1.343-.12v-9.838l3.119-6.194L60 73.387v8.378zm25.242-22l-7.245 8.272-10.19 1.505-5.9-9.525 4.292-10.778 8.308-3.511 7.511 2.757 3.218 11.281z"/></svg>