<svg xmlns="http://www.w3.org/2000/svg" viewBox="0 0 109.001 104" xmlns:v="https://vecta.io/nano"><path d="M77.147 80.354l3.284-2.214 5.059-3.409 1.018-.686-4.787-2.878.52-9.988-54.864-32.423 19.254 27.828 6.033 2.607-4.226-.148 3.057 4.162 10.953 4.734-7.674-.268 9.481 12.906 11.431-2.013 1.461 1.79zm11.124-1.495l13.872 12.258-4.923 4.392-14.008-13.241 5.059-3.409m-58.319 2.916L3.62 5.475l80.862 27.368H58.15l4.354 8.708-45.408-21.978 22.186 43.542-9.33-3.525v22.185z"/><path d="M55.029 92.038a6.435 6.435 0 1 1-12.765 1.645c-.454-3.525 3.029-23.932 3.4-23.979s8.911 18.809 9.365 22.334z"/></svg>