<svg xmlns="http://www.w3.org/2000/svg" viewBox="0 0 109.001 104" xmlns:v="https://vecta.io/nano"><path d="M70.987 52.691c-14.048-12.478-26.42 8.629-26.42 8.629s-11.945-20.361-25.993-7.883C5.2 65.317 17.748 77.644 23.581 83.9c6.06 6.5 20.613 13.157 20.613 13.157S58.348 90.3 64.408 83.8c5.834-6.262 19.953-19.228 6.579-31.109z" fill="#070808"/><path d="M92.856 34.867l-11.109.582-.582-11.109-7.163.375.582 11.109-11.108.581.375 7.163 11.109-.581.583 11.108 7.16-.375-.581-11.108 11.109-.582-.375-7.163zm6.824-21.716l-7.273.21-.211-7.272-4.689.136.212 7.273-7.273.211.137 4.689 7.273-.212.211 7.272 4.688-.136-.212-7.272 7.273-.211-.136-4.688z"/></svg>