<svg xmlns="http://www.w3.org/2000/svg" viewBox="0 0 109.001 104" xmlns:v="https://vecta.io/nano"><path d="M95.991 95.039h10.393l-8.6-8.837-10.835-5.611 3.08-6.816 4.531-1.582s.534-6.441-.761-7.407c-1.541-.9-6.119 3.021-6.119 3.021l.215 4.245-3.721 5.669-1.657-1.2L81.4 78.49 33.965 43.6l-28.89-4.916L21.225 57.4l5.026-3.38-2.635 6.031.559.839 54.33 22.707-1.142 1.973 2 1.1-2.756 5.73-4.021 2.108s-1.012 5.912.559 6.8 6.735-3.192 6.735-3.192l-.975-4.7 4.258-6.149 10.356 6.406zM69.2 65.939L37.908 39.96 8.127 34.869s2.315-10.712 32.09-21c35.587-12.3 55.736-6.8 55.736-6.8a42.945 42.945 0 0 0-22.465 17.46C63.422 40.583 69.2 65.939 69.2 65.939z"/></svg>