<svg xmlns="http://www.w3.org/2000/svg" viewBox="0 0 109.001 104" xmlns:v="https://vecta.io/nano"><path d="M95.245 86.887l-2.286-2.006-2.006.86L83.5 75.426l-8.027-7.45 4.3-5.158 4.3-.282s2.006-5.442 1.118-6.589c-1.118-1.146-6.017 1.147-6.017 1.147l-.832 3.723-4.577 4.011-1.148-1.428-1.44 1.432-32.663-41.553L14.7 12.106l9.484 20.055 5.157-1.719-3.724 4.585.282.859 41.553 32.663-1.461 1.433 1.461 1.432-3.753 4.3-3.983.86s-2.292 4.871-1.146 6.017 6.59-1.146 6.59-1.146l.282-4.3 5.158-4.3 7.421 8.023 10.344 7.449-.89 2.006L89.8 92.9l1.719 3.152 6.3-.86.86-6.3zM60.348 47.732a35.548 35.548 0 0 1 9.429-5.109 37.049 37.049 0 0 1 8.973-1.864c1.575-.149 3.183-.193 4.822-.209l2.476.03 2.524.055c-.734-.432-1.494-.8-2.26-1.178l-2.359-.984a30.6 30.6 0 0 0-4.978-1.426 29 29 0 0 0-10.637-.14 30.921 30.921 0 0 0-10.18 3.754q-1.151.677-2.246 1.429zM49.547 57.2l-6.015-4.73s-5.1 5.445-7.667 15.336a38.58 38.58 0 0 0-.747 12.883 31.062 31.062 0 0 0 3.3 10.272 52.963 52.963 0 0 1 2.963-20.552A38.474 38.474 0 0 1 49.547 57.2zM25.412 38.608l-2.843 4a53.715 53.715 0 0 0-6.183 13.123 45.686 45.686 0 0 0-2.111 14.244 39.026 39.026 0 0 0 .734 7.084 30.766 30.766 0 0 0 2.063 6.712 54.816 54.816 0 0 1 1.1-13.447 55.934 55.934 0 0 1 4.075-12.369 65.263 65.263 0 0 1 9.373-14.618zm21.42-9.237a56.526 56.526 0 0 1 16.136-7.5 55.516 55.516 0 0 1 12.766-2.1 45.339 45.339 0 0 1 13.329 1.311 27.1 27.1 0 0 0-6.163-3.169 35.69 35.69 0 0 0-6.9-1.8 46.551 46.551 0 0 0-14.448.04 51.406 51.406 0 0 0-19.6 7.428z"/></svg>