<svg xmlns="http://www.w3.org/2000/svg" viewBox="0 0 109.001 104" xmlns:v="https://vecta.io/nano"><path d="M59.093 37.1a56.943 56.943 0 0 0-7.615.136 32.274 32.274 0 0 0-7.645 1.771l-1.388.409L41.9 40l-3.157 3.354a27.917 27.917 0 0 1-.716 10 5.346 5.346 0 0 1 2.84-1.425 71.488 71.488 0 0 1 9.928 0l-9.928 2.448a8.45 8.45 0 0 0-2.445 1.223 71.607 71.607 0 0 1-9.287 9.792c-4.551 3.967-7.677 9.656-7.828 12.647-.255 5.054 1.9 7.671 1.9 7.671s7.54-1.044 10.347-2.783c2.6-1.608 35.466-23.655 35.466-23.655l-5.576-7.479S60.411 39.272 59.093 37.1zm-9.655 38.08l7.343-4.896 23.255 3.672-30.598 1.224zm-11.016 7.343l7.344-4.896 29.375 2.448-36.719 2.448zm22.031-14.687l7.344-4.896 18.359 4.896H60.453zm.928-32.004a42.166 42.166 0 0 0-9.767-.5c-7.049.58-9.384 2.175-9.384 2.175a30.061 30.061 0 0 1-1.536-5.252 24.82 24.82 0 0 0-1.32-4.675 24.3 24.3 0 0 0-1.088 7.48 29.04 29.04 0 0 0 1.088 5.575l-3.535 3.672a63.873 63.873 0 0 1-2.176-8.7c-.942-5.339.952-13.6.952-13.6s.959-1.7 7.207-3.128c9.52-2.176 14.688.952 14.688.952s1.055 5.342 1.631 7.072c1.359 4.079 3.24 8.929 3.24 8.929z"/></svg>