<svg id="defeated" xmlns="http://www.w3.org/2000/svg" viewBox="0 0 500 500"><defs><style>.cls-1{fill:#fff;}</style></defs><title>Artboard 1</title><path class="cls-1" d="M78.632,192.846l-27.019,5.386c3.069,4.951,7.606,8.132,14.871,13.346,0,0-15.225-3.987-26.207-11.087l-30.66,6.343s15.453,20.44,44.239,26.025l75.835-24.446S91.09,207.638,78.632,192.846Z"/><polygon class="cls-1" points="224.619 285.925 225.695 288.787 219.1 290.842 221.848 292.256 218.161 294.675 301.058 302.079 304.891 292.065 224.619 285.925"/><polygon class="cls-1" points="435.278 308.837 377.913 290.949 367.381 293.383 373.121 289.455 365.011 286.926 345.896 291.344 356.315 284.214 331.172 276.374 318.002 290.193 308.754 287.819 301.713 307.331 317.231 305.873 326.288 319.603 435.278 308.837"/><polygon class="cls-1" points="197.663 193.393 200.975 188.532 197.895 188.276 203.205 183.857 202.395 182.99 38.032 236.677 39.882 242.714 197.663 193.393 197.663 193.393"/><path class="cls-1" d="M54.651,240.615c-17.6,22.877-8.966,53.009-8.966,53.009l19.66-9.051c3.76-13.852,10.935-30.193,10.935-30.193-2.179,9.7-6.587,21.657-5.873,28.588l13.984-6.809a39.958,39.958,0,0,1,4.582-8.9,36.227,36.227,0,0,0-1.454,7.382l10.25-4.99c.258-22.66,28.019-51.565,28.019-51.565Z"/><polygon class="cls-1" points="184.391 298.551 198.831 295.26 202.744 294.369 198.911 296.633 204.622 297.013 197.454 298.125 184.391 298.551"/><polygon class="cls-1" points="209.844 197.086 208.01 197.726 201.764 195.36 204.554 194.996 204.426 193.204 208.18 195.934 209.844 197.086"/><polygon class="cls-1" points="321.619 226.865 322.589 234.232 316.998 226.865 306.954 226.865 306.898 242.007 319.215 241.724 317.802 269.126 333.057 269.183 333.283 241.837 346.448 241.724 346.448 226.865 321.619 226.865"/><path class="cls-1" d="M300.64,227.256h-1.93l-2.168,8.129-1.226-8.129h-12.7L273.35,269.4l15.763-.057.9-7.853,8.814.056,1.752,7.8,11.469-.056Zm-10.17,26.668.678-6.837h5.141l1.3,6.724Z"/><polygon class="cls-1" points="230.505 243.849 220.674 243.623 220.787 237.747 238.641 237.634 238.528 226.108 219.698 226.108 213.479 231.881 215.293 226.108 207.283 226.108 206.831 268.257 221.408 268.257 221.126 251.364 230.674 251.589 230.505 243.849"/><polygon class="cls-1" points="200.793 233.629 171.469 233.572 172.204 275.777 174.048 275.773 176.747 271.128 176.707 275.768 198.42 275.721 198.42 267.02 184.182 267.359 184.125 261.596 193.109 261.539 193.109 254.533 183.447 254.533 183.391 247.076 200.171 247.076 200.793 233.629"/><polygon class="cls-1" points="254.892 256.632 263.876 256.576 263.876 249.57 254.214 249.57 254.157 242.112 265.074 242.112 263.409 239.116 268.344 242.112 270.938 242.112 271.559 228.665 242.236 228.608 242.97 270.814 269.186 270.757 269.186 262.056 254.948 262.395 254.892 256.632"/><path class="cls-1" d="M163.283,232.976a17.354,17.354,0,0,0-3.951-4.63l-3.259,2.7,1.5-3.961c-.013-.008-.024-.019-.038-.027a28.6,28.6,0,0,0-7.653-3.29,45.072,45.072,0,0,0-8.519-1.42q-4.4-.312-8.277-.312h-3.394l3.048,52.154q.831.069,1.662.1t1.662.035a34.705,34.705,0,0,0,6.892-.693,31.486,31.486,0,0,0,6.614-2.113,32.819,32.819,0,0,0,5.991-3.462,27.157,27.157,0,0,0,5.022-4.745,23.362,23.362,0,0,0,3.878-6.753,31.215,31.215,0,0,0,1.87-7.93,29.428,29.428,0,0,0-.311-8.173A22.194,22.194,0,0,0,163.283,232.976ZM150.677,250.36a6.134,6.134,0,0,1-2.008,2.217,7.571,7.571,0,0,1-2.771,1.108l.277-11.221a8.107,8.107,0,0,1,2.494.693,4.616,4.616,0,0,1,2.77,4.5A6.426,6.426,0,0,1,150.677,250.36Z"/><polygon class="cls-1" points="378.99 233.208 371.308 236.093 374.042 232.804 349.685 232.757 350.42 274.962 376.636 274.906 376.636 266.204 362.398 266.544 362.341 260.781 371.325 260.724 371.325 253.718 361.663 253.718 361.607 246.26 378.387 246.26 378.99 233.208"/><path class="cls-1" d="M409.293,260.633l3.625,5.18a19.67,19.67,0,0,0,2.215-4.259,25.477,25.477,0,0,0,1.525-6.469,24.028,24.028,0,0,0-.254-6.667,18.12,18.12,0,0,0-2.232-6.1,13.9,13.9,0,0,0-4.689-4.831,23.355,23.355,0,0,0-6.243-2.683,36.726,36.726,0,0,0-6.95-1.159q-3.588-.254-6.752-.254H386.77l2.486,42.544q.678.057,1.356.085t1.355.028a28.308,28.308,0,0,0,5.623-.565,25.712,25.712,0,0,0,5.4-1.723,26.806,26.806,0,0,0,4.888-2.825,22.2,22.2,0,0,0,2.194-1.827Zm-5.4-4.136a5.012,5.012,0,0,1-1.639,1.809,6.166,6.166,0,0,1-2.259.9l.226-9.153a6.583,6.583,0,0,1,2.033.565,3.764,3.764,0,0,1,2.26,3.673A5.245,5.245,0,0,1,403.889,256.5Z"/></svg>