<svg width="18" height="18" viewBox="0 0 18 18" fill="none" xmlns="http://www.w3.org/2000/svg"><rect x="7" y="2" width="9" height="16" fill="white"></rect><path fill-rule="evenodd" clip-rule="evenodd" d="M18 17.0066C18 17.5553 17.5552 18.0001 17.0066 18.0001H12.4199V11.0295H14.7596L15.1099 8.3129H12.4199V6.57853C12.4199 5.79202 12.6383 5.25603 13.7661 5.25603L15.2046 5.25541V2.82567C14.9559 2.79256 14.1019 2.7186 13.1085 2.7186C11.0345 2.7186 9.61453 3.98459 9.61453 6.30949V8.3129H7.26881V11.0295H9.61453V18.0001H0.993462C0.444627 18.0001 0 17.5552 0 17.0066V0.993462C0 0.444697 0.444697 0 0.993462 0H17.0066C17.5552 0 18 0.444697 18 0.993462V17.0066Z" fill="#3C5A99"></path></svg>
